<svg xmlns="http://www.w3.org/2000/svg" width="750" height="1000" viewBox="0 0 750 1000" version="1.1"><path d="M 91.177 233.137 C 86.599 233.616, 81.977 234.477, 80.906 235.050 C 79.835 235.623, 78.561 235.847, 78.075 235.546 C 77.589 235.246, 72.761 235.944, 67.346 237.097 C 61.931 238.249, 56.262 239.425, 54.750 239.710 C 53.237 239.994, 51.998 240.513, 51.996 240.863 C 51.993 241.214, 50.314 241.588, 48.264 241.695 C 46.214 241.802, 44.377 242.368, 44.183 242.951 C 43.988 243.535, 43.438 243.771, 42.959 243.475 C 42.184 242.996, 34.981 245.629, 26.485 249.498 C 24.827 250.253, 22.352 251.299, 20.985 251.823 C 19.618 252.346, 15.767 254.791, 12.427 257.255 C 6.113 261.913, 2.469 267.453, 3.666 270.573 C 4.146 271.823, 3.980 272.106, 3.090 271.556 C 2.106 270.948, 1.941 273.620, 2.314 284.142 C 3.022 304.139, 3.915 309.608, 8.985 325 C 11.068 331.325, 13.556 339.304, 14.513 342.731 C 15.541 346.414, 16.673 348.702, 17.281 348.326 C 17.846 347.977, 18.024 348.152, 17.677 348.714 C 16.929 349.924, 21.861 363.841, 25.467 370.694 C 26.857 373.337, 29.819 379.513, 32.048 384.417 C 34.277 389.321, 36.913 394.496, 37.905 395.917 C 38.897 397.338, 40 399.706, 40.356 401.180 C 40.712 402.654, 41.709 404.567, 42.573 405.430 C 43.436 406.294, 43.883 407, 43.564 407 C 43.246 407, 45.101 411.023, 47.686 415.940 C 50.271 420.856, 52.675 424.701, 53.027 424.484 C 53.379 424.266, 53.667 424.688, 53.667 425.421 C 53.667 426.154, 55.429 429.775, 57.583 433.467 L 61.500 440.181 62.139 434.841 C 64.315 416.671, 65.818 409.967, 68.153 408.022 C 69.444 406.947, 70.822 406.052, 71.216 406.033 C 71.836 406.004, 82.556 399.455, 85.559 397.270 C 86.141 396.847, 88.166 395.666, 90.059 394.647 C 91.951 393.628, 95.750 391.553, 98.500 390.036 C 101.250 388.519, 105.975 385.916, 109 384.251 C 116.065 380.364, 138.716 369, 139.401 369 C 140.145 369, 154.821 362.216, 159 359.941 C 160.925 358.893, 162.303 357.465, 162.062 356.768 C 160.999 353.690, 162.202 341.361, 164.073 336.159 C 165.193 333.047, 166.159 329.938, 166.221 329.250 C 166.283 328.563, 166.708 328, 167.167 328 C 167.625 328, 168 327.534, 168 326.965 C 168 326.395, 170.060 321.636, 172.578 316.390 C 175.096 311.143, 176.902 306.186, 176.590 305.373 C 176.278 304.561, 176.440 304.154, 176.950 304.469 C 178.537 305.450, 183.220 294.657, 188.652 277.500 C 191.615 268.142, 192.126 265.132, 192.074 257.333 C 192.011 247.707, 190.785 242.397, 188.895 243.565 C 188.156 244.022, 188 243.576, 188.427 242.231 C 188.811 241.020, 188.474 239.617, 187.585 238.728 C 185.716 236.859, 173.916 234.574, 170.965 235.511 C 169.646 235.930, 168.987 235.829, 169.338 235.263 C 171.082 232.440, 112.941 230.859, 91.177 233.137 M 517.343 426.500 C 517.346 430.900, 517.522 432.576, 517.733 430.224 C 517.945 427.872, 517.942 424.272, 517.727 422.224 C 517.512 420.176, 517.339 422.100, 517.343 426.500 M 327.272 425 C 327.272 427.475, 327.467 428.488, 327.706 427.250 C 327.944 426.012, 327.944 423.988, 327.706 422.750 C 327.467 421.512, 327.272 422.525, 327.272 425 M 60.300 465 C 60.300 468.025, 60.487 469.262, 60.716 467.750 C 60.945 466.238, 60.945 463.762, 60.716 462.250 C 60.487 460.738, 60.300 461.975, 60.300 465 M 565.250 475.555 C 562.362 478.528, 560 481.449, 560 482.045 C 560 482.642, 557.750 485.321, 555 488 C 552.250 490.679, 550 493.310, 550 493.848 C 550 494.386, 547.300 497.568, 544 500.919 C 540.700 504.271, 538 507.470, 538 508.028 C 538 508.587, 535.535 511.509, 532.522 514.522 C 528.781 518.263, 526.244 520, 524.522 520 C 523.135 520, 522 520.450, 522 521 C 522 521.550, 520.227 522, 518.059 522 C 515.891 522, 513.840 522.450, 513.500 523 C 513.160 523.550, 511.784 524, 510.441 524 C 509.098 524, 508 524.450, 508 525 C 508 525.550, 507.100 526, 506 526 C 504.900 526, 504 526.450, 504 527 C 504 527.550, 503.385 528, 502.634 528 C 500.721 528, 490.731 537.915, 489.236 541.297 C 488.556 542.835, 488 545.423, 488 547.047 C 488 548.671, 487.550 550, 487 550 C 485.748 550, 485.682 554.269, 486.914 555.550 C 487.416 556.072, 487.978 557.625, 488.164 559 C 488.349 560.375, 489.288 562.228, 490.250 563.117 C 491.212 564.007, 492 565.209, 492 565.788 C 492 567.368, 500.942 576, 502.579 576 C 503.361 576, 504 576.450, 504 577 C 504 577.550, 504.900 578, 506 578 C 507.100 578, 508 578.450, 508 579 C 508 579.550, 508.863 580, 509.917 580 C 510.971 580, 511.991 580.472, 512.183 581.049 C 512.410 581.730, 518.779 582.092, 530.328 582.079 C 542.165 582.066, 548.747 582.449, 549.987 583.224 C 551.410 584.113, 552.473 584.106, 554.473 583.194 C 555.915 582.537, 560.898 582, 565.547 582 C 570.516 582, 574 581.588, 574 581 C 574 580.450, 575.357 580, 577.016 580 C 580.626 580, 588 577.822, 588 576.757 C 588 576.340, 588.690 576, 589.533 576 C 591.524 576, 598 569.524, 598 567.533 C 598 566.690, 597.550 566, 597 566 C 596.450 566, 596 565.138, 596 564.083 C 596 563.029, 595.438 561.966, 594.750 561.720 C 594.063 561.475, 593.849 560.901, 594.275 560.445 C 594.701 559.989, 596.533 560.153, 598.346 560.808 C 600.159 561.464, 602.623 562, 603.821 562 C 605.019 562, 606 562.450, 606 563 C 606 563.550, 607.800 564, 610 564 C 612.200 564, 614 564.450, 614 565 C 614 565.550, 615.800 566, 618 566 C 620.200 566, 622 566.401, 622 566.891 C 622 567.753, 626.694 568.861, 632.167 569.291 C 633.633 569.406, 635.140 569.806, 635.514 570.181 C 635.889 570.556, 636.900 570.592, 637.762 570.261 C 638.634 569.927, 639.066 570.084, 638.737 570.616 C 638.413 571.141, 638.901 571.609, 639.823 571.655 C 640.746 571.700, 646.450 572.057, 652.500 572.448 C 660.998 572.997, 663.159 572.892, 662 571.985 C 660.370 570.709, 661.046 570.826, 665.414 572.574 C 666.521 573.017, 667.092 572.952, 666.767 572.420 C 666.454 571.905, 668.694 571.470, 671.853 571.433 C 681.743 571.315, 692.653 563.883, 694.942 555.705 C 696.419 550.432, 695.022 543.810, 691.661 540.144 C 689.122 537.375, 681.864 532.219, 679.909 531.795 C 679.160 531.633, 677.954 530.949, 677.229 530.276 C 675.491 528.665, 668.168 526.721, 666.395 527.402 C 665.628 527.696, 665 527.542, 665 527.059 C 665 526.577, 661.737 525.619, 657.750 524.931 C 653.763 524.244, 649.938 523.248, 649.250 522.718 C 648.406 522.068, 648 522.154, 648 522.985 C 648 523.768, 647.365 523.948, 646.250 523.482 C 643.452 522.311, 620.915 520.739, 603 520.465 C 593.925 520.325, 585.987 520.164, 585.359 520.106 C 583.575 519.940, 582.800 513.824, 582.336 496.250 C 582.089 486.914, 581.501 480, 580.953 480 C 580.429 480, 580 478.650, 580 477 C 580 475.350, 579.602 474, 579.117 474 C 578.631 474, 577.998 473.100, 577.710 472 C 577.313 470.481, 576.382 470.018, 573.844 470.075 C 571.160 470.135, 569.464 471.216, 565.250 475.555 M 570 477.555 C 570 478.411, 567.300 481.761, 564 485 C 560.700 488.239, 558 491.409, 558 492.043 C 558 492.678, 556.650 494.459, 555 496 C 553.350 497.541, 552 499.522, 552 500.401 C 552 501.281, 551.293 502, 550.429 502 C 548.408 502, 546 504.408, 546 506.429 C 546 507.293, 545.550 508, 545 508 C 544.450 508, 544 508.900, 544 510 C 544 511.124, 543.333 512, 542.478 512 C 541.641 512, 538.491 514.465, 535.478 517.478 C 532.465 520.491, 530 523.641, 530 524.478 C 530 526.306, 528.840 526.440, 527.200 524.800 C 526.267 523.867, 526 523.867, 526 524.800 C 526 525.533, 524.444 526, 522 526 C 519.800 526, 518 526.450, 518 527 C 518 527.550, 516.650 528, 515 528 C 513.350 528, 512 528.450, 512 529 C 512 529.550, 511.100 530, 510 530 C 508.900 530, 508 530.450, 508 531 C 508 531.550, 507.199 532, 506.221 532 C 505.242 532, 503.793 532.900, 503 534 C 502.207 535.100, 500.758 536, 499.779 536 C 498.740 536, 498 536.740, 498 537.779 C 498 538.758, 497.100 540.207, 496 541 C 494.900 541.793, 494 543.242, 494 544.221 C 494 545.199, 493.550 546, 493 546 C 492.449 546, 492 548.593, 492 551.779 C 492 556.411, 492.397 557.845, 494 559 C 495.100 559.793, 496 561.029, 496 561.747 C 496 563.568, 504.613 572, 506.474 572 C 507.313 572, 508 572.450, 508 573 C 508 573.550, 508.900 574, 510 574 C 511.100 574, 512 574.450, 512 575 C 512 575.550, 513.323 576, 514.941 576 C 516.559 576, 518.160 576.450, 518.500 577 C 518.885 577.623, 528.344 578, 543.559 578 C 559.186 578, 568 577.639, 568 577 C 568 576.444, 570.667 576, 574 576 C 577.333 576, 580 575.556, 580 575 C 580 574.450, 581.350 574, 583 574 C 584.650 574, 586 573.550, 586 573 C 586 572.450, 586.707 572, 587.571 572 C 589.932 572, 592 569.465, 592 566.571 C 592 564.773, 591.465 564, 590.221 564 C 589.242 564, 587.793 563.100, 587 562 C 586.207 560.900, 584.758 560, 583.779 560 C 582.801 560, 582 559.550, 582 559 C 582 558.450, 580.200 558, 578 558 C 575.800 558, 574 557.550, 574 557 C 574 556.450, 571.750 556, 569 556 C 566.250 556, 564 555.550, 564 555 C 564 554.378, 558.333 554, 549 554 C 539.667 554, 534 554.378, 534 555 C 534 555.571, 531 556, 527 556 C 523 556, 520 556.429, 520 557 C 520 557.550, 517.750 558, 515 558 C 510.111 558, 510 557.933, 510 555 C 510 552.167, 510.222 552, 514 552 C 516.200 552, 518 551.550, 518 551 C 518 550.437, 520.814 550, 524.441 550 C 527.984 550, 531.160 549.550, 531.500 549 C 531.873 548.397, 538.844 548, 549.059 548 C 559.686 548, 566 548.373, 566 549 C 566 549.550, 568.250 550, 571 550 C 573.750 550, 576 550.450, 576 551 C 576 551.550, 578.250 552, 581 552 C 583.750 552, 586 552.450, 586 553 C 586 553.550, 588.250 554, 591 554 C 593.750 554, 596 554.450, 596 555 C 596 555.550, 597.350 556, 599 556 C 600.650 556, 602 556.401, 602 556.891 C 602 557.766, 605.343 558.550, 613.750 559.647 C 616.087 559.952, 618 560.606, 618 561.101 C 618 561.595, 619.773 562, 621.941 562 C 624.109 562, 626.160 562.450, 626.500 563 C 626.840 563.550, 628.666 564, 630.559 564 C 632.452 564, 634 564.450, 634 565 C 634 565.592, 637.647 566, 642.941 566 C 647.859 566, 652.160 566.450, 652.500 567 C 652.840 567.550, 656.466 568, 660.559 568 C 664.853 568, 668 567.577, 668 567 C 668 566.450, 670.250 566, 673 566 C 675.750 566, 678 565.550, 678 565 C 678 564.450, 678.900 564, 680 564 C 681.100 564, 682 563.550, 682 563 C 682 562.450, 682.695 562, 683.545 562 C 684.395 562, 686.195 560.895, 687.545 559.545 C 689.561 557.530, 690 556.100, 690 551.545 C 690 548.495, 689.660 546, 689.244 546 C 688.828 546, 687.891 544.650, 687.160 543 C 686.351 541.172, 685.084 540, 683.916 540 C 682.862 540, 682 539.550, 682 539 C 682 538.450, 681.100 538, 680 538 C 678.900 538, 678 537.550, 678 537 C 678 536.450, 677.100 536, 676 536 C 674.900 536, 674 535.550, 674 535 C 674 534.450, 672.650 534, 671 534 C 669.350 534, 668 533.550, 668 533 C 668 532.450, 666.843 532, 665.429 532 C 662.786 532, 659.611 529.723, 660.714 528.619 C 661.055 528.279, 660.808 528, 660.167 528 C 659.525 528, 659 528.450, 659 529 C 659 529.550, 657.425 530, 655.500 530 C 652.561 530, 652 529.648, 652 527.800 C 652 526.089, 651.733 525.867, 650.800 526.800 C 649.355 528.245, 640 528.419, 640 527 C 640 526.355, 629 526, 609 526 L 578 526 578 522.083 C 578 519.928, 578.562 517.904, 579.250 517.583 C 580.250 517.117, 580.250 516.883, 579.250 516.417 C 578.338 515.991, 578 512.072, 578 501.917 C 578 493.306, 577.619 488, 577 488 C 576.450 488, 576 485.943, 576 483.429 C 576 478.710, 574.385 476, 571.571 476 C 570.707 476, 570 476.700, 570 477.555 M 60.355 495.500 C 60.352 500.450, 60.521 502.601, 60.731 500.280 C 60.940 497.959, 60.943 493.909, 60.736 491.280 C 60.530 488.651, 60.358 490.550, 60.355 495.500 M 283.250 679.706 C 282.012 679.944, 281 680.520, 281 680.986 C 281 681.452, 279.762 682.285, 278.250 682.838 L 275.500 683.842 278.667 683.921 C 280.408 683.964, 282.096 683.438, 282.417 682.750 C 282.883 681.750, 283.117 681.750, 283.583 682.750 C 283.934 683.501, 286.128 684, 289.083 684 C 291.788 684, 294 684.450, 294 685 C 294 685.550, 295.548 686, 297.441 686 C 299.334 686, 301.160 686.450, 301.500 687 C 301.840 687.550, 303.441 688, 305.059 688 C 306.677 688, 308 688.450, 308 689 C 308 689.550, 310.250 690, 313 690 C 315.750 690, 318 690.450, 318 691 C 318 691.550, 318.900 692, 320 692 C 321.100 692, 322 692.450, 322 693 C 322 693.550, 322.900 694, 324 694 C 325.100 694, 326 694.450, 326 695 C 326 695.550, 326.695 696, 327.545 696 C 328.985 696, 334 700.238, 334 701.455 C 334 702.959, 328.276 701.770, 327 700 C 325.285 697.620, 321.466 697.391, 319.319 699.538 C 317.935 700.922, 317.993 701.259, 319.891 702.905 C 321.051 703.911, 322 705.919, 322 707.367 C 322 709.960, 321.894 710, 315 710 C 311 710, 308 709.571, 308 709 C 308 708.450, 307.100 708, 306 708 C 304.900 708, 304 707.550, 304 707 C 304 706.450, 302.200 706, 300 706 C 296.667 706, 296 706.333, 296 708 C 296 709.100, 296.450 710, 297 710 C 297.550 710, 298 710.900, 298 712 C 298 713.833, 297.333 714, 290 714 C 285.333 714, 282 713.583, 282 713 C 282 712.450, 279.750 712, 277 712 C 274.250 712, 272 711.550, 272 711 C 272 710.450, 270.299 710, 268.221 710 C 265.589 710, 264.004 709.393, 263 708 C 262.207 706.900, 260.758 706, 259.779 706 C 258.801 706, 258 705.550, 258 705 C 258 704.450, 257.317 704, 256.481 704 C 254.759 704, 242 691.619, 242 689.947 C 242 688.571, 239.474 686, 238.121 686 C 237.559 686, 236.641 685.212, 236.080 684.250 C 235.146 682.647, 235.058 682.670, 235.030 684.527 C 235.001 686.488, 237.029 690.079, 239.724 692.837 C 240.443 693.572, 242.234 695.822, 243.706 697.837 C 247.752 703.375, 252.249 708, 253.589 708 C 254.247 708, 255.063 708.722, 255.401 709.604 C 255.764 710.549, 256.651 710.964, 257.560 710.615 C 258.444 710.276, 258.843 710.446, 258.493 711.011 C 257.888 711.990, 259.242 712.410, 261.850 712.052 C 262.593 711.950, 262.937 712.293, 262.615 712.814 C 261.984 713.836, 273.864 717.202, 275.196 716.379 C 275.638 716.106, 276 716.284, 276 716.774 C 276 717.861, 275.707 717.836, 290.477 718.014 C 301.249 718.143, 302.613 717.962, 304.034 716.206 C 305.407 714.511, 306.807 714.270, 314.652 714.377 C 324.594 714.512, 326.674 713.650, 327.191 709.177 C 327.471 706.749, 327.890 706.500, 331.698 706.500 C 334.006 706.500, 336.438 705.958, 337.101 705.296 C 339.191 703.211, 338.341 697.966, 335.420 694.917 C 332.157 691.511, 326.413 688.627, 324.834 689.602 C 324.190 690, 323.962 689.870, 324.312 689.304 C 324.916 688.327, 318.456 685.667, 315.480 685.667 C 314.666 685.667, 314 685.353, 314 684.970 C 314 684.587, 311.188 683.701, 307.750 683.002 C 304.313 682.303, 299.043 681.117, 296.040 680.366 C 290.645 679.016, 287.636 678.861, 283.250 679.706 M 268.500 685 C 266.668 685.787, 266.710 685.864, 269 685.914 C 270.375 685.945, 272.175 685.533, 273 685 C 274.238 684.200, 274.151 684.040, 272.500 684.086 C 271.400 684.116, 269.600 684.527, 268.500 685 M 245 687 C 246.978 688.278, 255.710 688.278, 256.500 687 C 256.889 686.370, 254.597 686.006, 250.309 686.015 C 245.544 686.026, 243.950 686.322, 245 687 M 519.370 706 C 519.370 711.775, 519.535 714.138, 519.737 711.250 C 519.939 708.362, 519.939 703.638, 519.737 700.750 C 519.535 697.862, 519.370 700.225, 519.370 706 M 140 699.189 C 140 699.740, 139.069 701.498, 137.932 703.096 C 136.794 704.693, 136.344 706, 136.932 706 C 137.519 706, 138 705.550, 138 705 C 138 704.450, 139.800 704, 142 704 C 144.200 704, 146 704.450, 146 705 C 146 705.550, 147.350 706, 149 706 C 150.650 706, 152 706.450, 152 707 C 152 707.550, 152.900 708, 154 708 C 155.100 708, 156 708.450, 156 709 C 156 709.550, 157.350 710, 159 710 C 160.650 710, 162 710.450, 162 711 C 162 711.550, 162.900 712, 164 712 C 165.100 712, 166 712.450, 166 713 C 166 713.550, 166.801 714, 167.779 714 C 168.758 714, 170.207 714.900, 171 716 C 171.793 717.100, 173.143 718, 174 718 C 174.857 718, 176.207 718.900, 177 720 C 177.793 721.100, 179.143 722, 180 722 C 180.857 722, 182.207 722.900, 183 724 C 183.793 725.100, 185.037 726, 185.764 726 C 186.492 726, 189.480 728.451, 192.405 731.446 C 196.254 735.389, 197.324 737.046, 196.279 737.446 C 193.813 738.393, 186 738.053, 186 737 C 186 736.450, 184.650 736, 183 736 C 181.350 736, 180 735.550, 180 735 C 180 733.610, 175.938 733.750, 172.707 735.250 C 170.125 736.449, 170.015 736.816, 170.008 744.250 C 170.001 751.331, 169.827 752, 168 752 C 166.900 752, 166 751.550, 166 751 C 166 750.450, 164.650 750, 163 750 C 161.350 750, 160 749.550, 160 749 C 160 748.450, 159.265 748, 158.367 748 C 157.469 748, 155.869 747.002, 154.811 745.782 C 153.266 744, 152.720 743.836, 152.034 744.944 C 151.324 746.094, 150.912 746.055, 149.562 744.705 C 147.941 743.083, 145.135 743.404, 143.828 745.360 C 143.458 745.914, 143.362 748.084, 143.615 750.183 L 144.076 754 140.121 754 C 137.946 754, 136.017 753.570, 135.833 753.044 C 135.650 752.518, 133.813 751.976, 131.750 751.839 C 129.688 751.703, 128 751.233, 128 750.796 C 128 750.358, 127.100 750, 126 750 C 124.900 750, 124 749.550, 124 749 C 124 748.450, 123.100 748, 122 748 C 120.900 748, 120 747.550, 120 747 C 120 746.450, 119.199 746, 118.221 746 C 117.242 746, 115.793 745.100, 115 744 C 114.207 742.900, 112.758 742, 111.779 742 C 110.667 742, 110 741.251, 110 740 C 110 738.667, 109.333 738, 108 738 C 106.834 738, 106 737.333, 106 736.401 C 106 735.522, 104.650 733.541, 103 732 C 101.350 730.459, 100 728.478, 100 727.599 C 100 726.719, 99.550 726, 99 726 C 98.450 726, 98 724.650, 98 723 C 98 721.350, 97.550 720, 97 720 C 95.497 720, 95.734 708.276, 97.250 707.651 C 98.007 707.338, 97.613 706.865, 96.250 706.451 C 95.013 706.075, 93.986 705.257, 93.968 704.633 C 93.904 702.338, 91 707.468, 91 709.877 C 91 714.377, 94.158 725.383, 97.204 731.500 C 100.402 737.921, 106.147 743.855, 115 749.879 C 120.788 753.817, 130.473 757.444, 132.257 756.341 C 132.872 755.961, 133.013 756.170, 132.595 756.845 C 131.902 757.968, 132.824 758.100, 143.809 758.455 C 147.948 758.589, 149.368 756.953, 148.509 753.041 C 147.955 750.517, 148.152 750.001, 149.671 750.004 C 150.677 750.006, 152.850 750.819, 154.500 751.810 C 159.807 754.998, 168.603 757.283, 170.881 756.064 C 174.538 754.107, 176 750.850, 176 744.661 C 176 739.004, 176.090 738.795, 178.250 739.480 C 179.488 739.873, 181.254 740.247, 182.177 740.311 C 183.099 740.376, 183.688 740.696, 183.486 741.023 C 183.283 741.351, 184.891 742.092, 187.059 742.670 C 189.227 743.249, 191 743.380, 191 742.961 C 191 742.542, 192.545 742.200, 194.434 742.200 C 198.564 742.200, 199.880 741.483, 200.952 738.648 C 201.684 736.711, 200.755 733.379, 199.100 732 C 198.770 731.725, 197.979 730.600, 197.343 729.500 C 196.707 728.400, 195.694 727.613, 195.093 727.750 C 194.492 727.888, 194.112 727.468, 194.250 726.818 C 194.615 725.092, 176.103 712.842, 164.500 707.131 C 152.012 700.985, 140 697.091, 140 699.189 M 131 709.156 C 127.268 710.827, 124.920 711.106, 117.250 710.791 C 112.162 710.582, 108 710.769, 108 711.206 C 108 711.643, 112.950 712, 119 712 C 125.667 712, 130 711.606, 130 711 C 130 710.450, 131.350 710, 133 710 C 135 710, 136 709.500, 136 708.500 C 136 707.675, 135.887 707.032, 135.750 707.071 C 135.613 707.109, 133.475 708.048, 131 709.156 M 100 708.981 C 100 709.541, 101.425 710, 103.167 710 C 106.808 710, 106.676 709.563, 102.750 708.622 C 101.117 708.230, 100 708.376, 100 708.981 M 401.768 778.725 C 403.565 778.947, 406.265 778.943, 407.768 778.715 C 409.271 778.486, 407.800 778.304, 404.500 778.310 C 401.200 778.315, 399.971 778.502, 401.768 778.725" stroke="none" fill="#ff9849" fill-rule="evenodd"/><path d="M 570 477.555 C 570 478.411, 567.300 481.761, 564 485 C 560.700 488.239, 558 491.409, 558 492.043 C 558 492.678, 556.650 494.459, 555 496 C 553.350 497.541, 552 499.522, 552 500.401 C 552 501.281, 551.293 502, 550.429 502 C 548.408 502, 546 504.408, 546 506.429 C 546 507.293, 545.550 508, 545 508 C 544.450 508, 544 508.900, 544 510 C 544 511.124, 543.333 512, 542.478 512 C 541.641 512, 538.491 514.465, 535.478 517.478 C 532.465 520.491, 530 523.641, 530 524.478 C 530 526.306, 528.840 526.440, 527.200 524.800 C 526.267 523.867, 526 523.867, 526 524.800 C 526 525.533, 524.444 526, 522 526 C 519.800 526, 518 526.450, 518 527 C 518 527.550, 516.650 528, 515 528 C 513.350 528, 512 528.450, 512 529 C 512 529.550, 511.100 530, 510 530 C 508.900 530, 508 530.450, 508 531 C 508 531.550, 507.199 532, 506.221 532 C 505.242 532, 503.793 532.900, 503 534 C 502.207 535.100, 500.758 536, 499.779 536 C 498.740 536, 498 536.740, 498 537.779 C 498 538.758, 497.100 540.207, 496 541 C 494.900 541.793, 494 543.242, 494 544.221 C 494 545.199, 493.550 546, 493 546 C 492.449 546, 492 548.593, 492 551.779 C 492 556.411, 492.397 557.845, 494 559 C 495.100 559.793, 496 561.029, 496 561.747 C 496 563.568, 504.613 572, 506.474 572 C 507.313 572, 508 572.450, 508 573 C 508 573.550, 508.900 574, 510 574 C 511.100 574, 512 574.450, 512 575 C 512 575.550, 513.323 576, 514.941 576 C 516.559 576, 518.160 576.450, 518.500 577 C 518.885 577.623, 528.344 578, 543.559 578 C 559.186 578, 568 577.639, 568 577 C 568 576.444, 570.667 576, 574 576 C 577.333 576, 580 575.556, 580 575 C 580 574.450, 581.350 574, 583 574 C 584.650 574, 586 573.550, 586 573 C 586 572.450, 586.707 572, 587.571 572 C 589.932 572, 592 569.465, 592 566.571 C 592 564.773, 591.465 564, 590.221 564 C 589.242 564, 587.793 563.100, 587 562 C 586.207 560.900, 584.758 560, 583.779 560 C 582.801 560, 582 559.550, 582 559 C 582 558.450, 580.200 558, 578 558 C 575.800 558, 574 557.550, 574 557 C 574 556.450, 571.750 556, 569 556 C 566.250 556, 564 555.550, 564 555 C 564 554.378, 558.333 554, 549 554 C 539.667 554, 534 554.378, 534 555 C 534 555.571, 531 556, 527 556 C 523 556, 520 556.429, 520 557 C 520 557.550, 517.750 558, 515 558 C 510.111 558, 510 557.933, 510 555 C 510 552.167, 510.222 552, 514 552 C 516.200 552, 518 551.550, 518 551 C 518 550.437, 520.814 550, 524.441 550 C 527.984 550, 531.160 549.550, 531.500 549 C 531.873 548.397, 538.844 548, 549.059 548 C 559.686 548, 566 548.373, 566 549 C 566 549.550, 568.250 550, 571 550 C 573.750 550, 576 550.450, 576 551 C 576 551.550, 578.250 552, 581 552 C 583.750 552, 586 552.450, 586 553 C 586 553.550, 588.250 554, 591 554 C 593.750 554, 596 554.450, 596 555 C 596 555.550, 597.350 556, 599 556 C 600.650 556, 602 556.401, 602 556.891 C 602 557.766, 605.343 558.550, 613.750 559.647 C 616.087 559.952, 618 560.606, 618 561.101 C 618 561.595, 619.773 562, 621.941 562 C 624.109 562, 626.160 562.450, 626.500 563 C 626.840 563.550, 628.666 564, 630.559 564 C 632.452 564, 634 564.450, 634 565 C 634 565.592, 637.647 566, 642.941 566 C 647.859 566, 652.160 566.450, 652.500 567 C 652.840 567.550, 656.466 568, 660.559 568 C 664.853 568, 668 567.577, 668 567 C 668 566.450, 670.250 566, 673 566 C 675.750 566, 678 565.550, 678 565 C 678 564.450, 678.900 564, 680 564 C 681.100 564, 682 563.550, 682 563 C 682 562.450, 682.695 562, 683.545 562 C 684.395 562, 686.195 560.895, 687.545 559.545 C 689.561 557.530, 690 556.100, 690 551.545 C 690 548.495, 689.660 546, 689.244 546 C 688.828 546, 687.891 544.650, 687.160 543 C 686.351 541.172, 685.084 540, 683.916 540 C 682.862 540, 682 539.550, 682 539 C 682 538.450, 681.100 538, 680 538 C 678.900 538, 678 537.550, 678 537 C 678 536.450, 677.100 536, 676 536 C 674.900 536, 674 535.550, 674 535 C 674 534.450, 672.650 534, 671 534 C 669.350 534, 668 533.550, 668 533 C 668 532.450, 666.650 532, 665 532 C 663.350 532, 662 531.550, 662 531 C 662 530.450, 659.750 530, 657 530 C 654.250 530, 652 529.550, 652 529 C 652 528.444, 649.333 528, 646 528 C 642.667 528, 640 527.556, 640 527 C 640 526.355, 629 526, 609 526 L 578 526 578 522.083 C 578 519.928, 578.562 517.904, 579.250 517.583 C 580.250 517.117, 580.250 516.883, 579.250 516.417 C 578.338 515.991, 578 512.072, 578 501.917 C 578 493.306, 577.619 488, 577 488 C 576.450 488, 576 485.943, 576 483.429 C 576 478.710, 574.385 476, 571.571 476 C 570.707 476, 570 476.700, 570 477.555 M 282 682.899 C 282 683.909, 276.135 684.850, 265 685.627 C 260.875 685.915, 257.072 686.566, 256.550 687.075 C 255.213 688.377, 248.265 688.225, 244.346 686.808 C 242.533 686.153, 240.701 685.989, 240.275 686.445 C 239.849 686.901, 240.063 687.475, 240.750 687.720 C 241.438 687.966, 242 688.813, 242 689.602 C 242 691.520, 254.552 704, 256.481 704 C 257.317 704, 258 704.450, 258 705 C 258 705.550, 258.801 706, 259.779 706 C 260.758 706, 262.207 706.900, 263 708 C 264.004 709.393, 265.589 710, 268.221 710 C 270.299 710, 272 710.450, 272 711 C 272 711.550, 274.250 712, 277 712 C 279.750 712, 282 712.450, 282 713 C 282 713.583, 285.333 714, 290 714 C 297.333 714, 298 713.833, 298 712 C 298 710.900, 297.550 710, 297 710 C 296.450 710, 296 709.100, 296 708 C 296 706.333, 296.667 706, 300 706 C 302.200 706, 304 706.450, 304 707 C 304 707.550, 304.900 708, 306 708 C 307.100 708, 308 708.450, 308 709 C 308 709.571, 311 710, 315 710 C 321.894 710, 322 709.960, 322 707.367 C 322 705.919, 321.051 703.911, 319.891 702.905 C 317.993 701.259, 317.935 700.922, 319.319 699.538 C 321.466 697.391, 325.285 697.620, 327 700 C 328.276 701.770, 334 702.959, 334 701.455 C 334 700.238, 328.985 696, 327.545 696 C 326.695 696, 326 695.550, 326 695 C 326 694.450, 325.100 694, 324 694 C 322.900 694, 322 693.550, 322 693 C 322 692.450, 321.100 692, 320 692 C 318.900 692, 318 691.550, 318 691 C 318 690.450, 315.750 690, 313 690 C 310.250 690, 308 689.550, 308 689 C 308 688.450, 306.677 688, 305.059 688 C 303.441 688, 301.840 687.550, 301.500 687 C 301.160 686.450, 299.334 686, 297.441 686 C 295.548 686, 294 685.550, 294 685 C 294 684.450, 291.750 684, 289 684 C 286.250 684, 284 683.550, 284 683 C 284 682.450, 283.550 682, 283 682 C 282.450 682, 282 682.405, 282 682.899 M 137.250 705.496 C 136.563 706.277, 136 707.610, 136 708.458 C 136 709.505, 135.036 710, 133 710 C 131.350 710, 130 710.450, 130 711 C 130 711.606, 125.667 712, 119 712 C 112.333 712, 108 711.606, 108 711 C 108 710.450, 106.200 710, 104 710 C 101.800 710, 100 709.550, 100 709 C 100 708.450, 99.100 708, 98 708 C 96.222 708, 96 708.667, 96 714 C 96 717.333, 96.444 720, 97 720 C 97.550 720, 98 721.350, 98 723 C 98 724.650, 98.450 726, 99 726 C 99.550 726, 100 726.719, 100 727.599 C 100 728.478, 101.350 730.459, 103 732 C 104.650 733.541, 106 735.522, 106 736.401 C 106 737.333, 106.834 738, 108 738 C 109.333 738, 110 738.667, 110 740 C 110 741.251, 110.667 742, 111.779 742 C 112.758 742, 114.207 742.900, 115 744 C 115.793 745.100, 117.242 746, 118.221 746 C 119.199 746, 120 746.450, 120 747 C 120 747.550, 120.900 748, 122 748 C 123.100 748, 124 748.450, 124 749 C 124 749.550, 124.900 750, 126 750 C 127.100 750, 128 750.358, 128 750.796 C 128 751.233, 129.688 751.703, 131.750 751.839 C 133.813 751.976, 135.650 752.518, 135.833 753.044 C 136.017 753.570, 137.946 754, 140.121 754 L 144.076 754 143.615 750.183 C 143.362 748.084, 143.458 745.914, 143.828 745.360 C 145.135 743.404, 147.941 743.083, 149.562 744.705 C 150.912 746.055, 151.324 746.094, 152.034 744.944 C 152.720 743.836, 153.266 744, 154.811 745.782 C 155.869 747.002, 157.469 748, 158.367 748 C 159.265 748, 160 748.450, 160 749 C 160 749.550, 161.350 750, 163 750 C 164.650 750, 166 750.450, 166 751 C 166 751.550, 166.900 752, 168 752 C 169.827 752, 170.001 751.331, 170.008 744.250 C 170.015 736.816, 170.125 736.449, 172.707 735.250 C 175.938 733.750, 180 733.610, 180 735 C 180 735.550, 181.350 736, 183 736 C 184.650 736, 186 736.450, 186 737 C 186 738.053, 193.813 738.393, 196.279 737.446 C 197.324 737.046, 196.254 735.389, 192.405 731.446 C 189.480 728.451, 186.492 726, 185.764 726 C 185.037 726, 183.793 725.100, 183 724 C 182.207 722.900, 180.857 722, 180 722 C 179.143 722, 177.793 721.100, 177 720 C 176.207 718.900, 174.857 718, 174 718 C 173.143 718, 171.793 717.100, 171 716 C 170.207 714.900, 168.758 714, 167.779 714 C 166.801 714, 166 713.550, 166 713 C 166 712.450, 165.100 712, 164 712 C 162.900 712, 162 711.550, 162 711 C 162 710.450, 160.650 710, 159 710 C 157.350 710, 156 709.550, 156 709 C 156 708.450, 155.100 708, 154 708 C 152.900 708, 152 707.550, 152 707 C 152 706.450, 150.650 706, 149 706 C 147.350 706, 146 705.550, 146 705 C 146 703.470, 138.668 703.885, 137.250 705.496" stroke="none" fill="#ffa119" fill-rule="evenodd"/><path d="M 592 308.988 C 588.975 310.580, 584.025 312.886, 581 314.112 C 577.975 315.338, 572.484 318.266, 568.799 320.619 C 565.113 322.972, 560.388 325.374, 558.299 325.956 C 556.209 326.539, 551.679 328.543, 548.231 330.409 C 544.406 332.480, 541.092 333.619, 539.731 333.331 C 537.248 332.806, 525.778 329.478, 519.295 327.401 C 516.982 326.660, 511.357 325.773, 506.795 325.429 C 502.233 325.086, 495.800 323.996, 492.500 323.007 C 484.132 320.500, 477.653 319.225, 469.500 318.480 C 465.650 318.129, 460.622 317.432, 458.326 316.933 C 456.030 316.434, 445.680 315.795, 435.326 315.513 C 424.972 315.231, 408.400 314.591, 398.500 314.089 C 368.997 312.594, 328.560 315.189, 300.500 320.378 C 299.400 320.581, 295.800 321.064, 292.500 321.450 C 280.831 322.816, 238.717 332.488, 225 336.953 C 220.325 338.474, 212.675 340.921, 208 342.389 C 192.705 347.192, 189.540 348.250, 186.500 349.575 C 182.373 351.375, 168.052 356.672, 165 357.528 C 163.625 357.914, 160.925 359.041, 159 360.034 C 154.061 362.580, 140.028 369, 139.401 369 C 138.744 369, 116.215 380.282, 109.500 383.973 C 106.750 385.485, 102.025 388.088, 99 389.758 C 95.975 391.428, 91.951 393.628, 90.059 394.647 C 88.166 395.666, 86.141 396.847, 85.559 397.270 C 82.556 399.455, 71.836 406.004, 71.216 406.033 C 70.822 406.052, 69.440 406.949, 68.145 408.028 C 65.672 410.089, 64.362 416.298, 61.928 437.500 C 60.543 449.566, 60.591 505.978, 61.997 518.500 C 63.894 535.393, 64.937 545.951, 66.047 559.500 C 66.633 566.650, 67.969 576.100, 69.015 580.500 C 71.337 590.262, 73.431 602.365, 74.983 615 C 75.625 620.225, 76.998 628.775, 78.034 634 C 79.069 639.225, 80.417 647.775, 81.028 653 C 82.338 664.204, 85.804 679.218, 90.610 694.522 C 93.589 704.004, 94.452 705.707, 96.786 706.708 C 106.544 710.895, 123.164 712.249, 130.485 709.453 C 134.931 707.755, 138.862 703.246, 140.480 697.987 C 140.901 696.619, 143.842 690.100, 147.016 683.500 C 150.190 676.900, 154.251 668.237, 156.041 664.250 C 157.831 660.263, 159.622 657, 160.021 657 C 160.419 657, 165.446 658.540, 171.190 660.421 C 176.935 662.303, 184.979 664.317, 189.067 664.897 C 193.155 665.477, 198.072 666.413, 199.993 666.976 C 201.915 667.539, 205.515 668.016, 207.993 668.035 C 211.336 668.062, 224.823 669.790, 230.750 670.951 C 230.887 670.978, 231.019 671.788, 231.043 672.750 C 231.066 673.712, 232.333 676.975, 233.857 680 L 236.629 685.500 250.065 685.814 C 262.577 686.107, 268.946 685.415, 277.750 682.808 C 279.537 682.278, 281 681.461, 281 680.992 C 281 680.523, 282.013 679.944, 283.250 679.706 L 285.500 679.272 283.250 679.136 C 282.012 679.061, 281 678.522, 281 677.939 C 281 677.269, 282.567 677.084, 285.250 677.439 C 287.587 677.747, 295.125 678.453, 302 679.006 C 323.818 680.762, 328.486 681.201, 329.072 681.554 C 329.387 681.743, 334.413 681.974, 340.243 682.067 C 355.085 682.304, 355.247 682.422, 356.630 694.024 C 358.039 705.839, 360.604 719.098, 362.623 725 C 363.469 727.475, 365.047 732.875, 366.128 737 C 368.730 746.924, 370.552 752.048, 374.537 760.647 C 377.348 766.710, 378.668 768.337, 383.255 771.381 C 393.986 778.504, 403.652 779.726, 419.060 775.909 C 434.599 772.059, 438.187 767.850, 436.063 755.963 C 434.651 748.062, 431.936 744.905, 423.046 740.826 C 417.073 738.086, 417.247 739.296, 419.579 716.759 C 421.405 699.109, 422.263 696.580, 426.514 696.310 C 430.530 696.055, 445.973 693.374, 454 691.538 C 457.575 690.720, 465.641 689.117, 471.925 687.976 C 487.811 685.090, 498.548 682.457, 505 679.865 C 508.025 678.650, 512.738 677.621, 515.472 677.578 L 520.445 677.500 520.173 698 C 519.791 726.890, 520.650 728.269, 540 729.844 C 549.862 730.646, 553.055 730.499, 562.416 728.811 C 574.047 726.714, 577.517 725.010, 578.340 720.992 C 579.107 717.243, 576.614 706.729, 573.926 702.380 C 572.138 699.487, 571.523 696.958, 571.408 692.026 C 571.214 683.684, 572.705 667.128, 573.894 664.413 C 574.578 662.852, 578.043 661.254, 587.654 658.065 C 601.534 653.461, 602.206 653.124, 612.152 645.781 C 617.958 641.495, 619.062 640.147, 620.826 635.185 C 626.174 620.144, 628.223 613.047, 628.676 608 C 628.947 604.975, 629.853 600.700, 630.688 598.500 C 633.152 592.009, 636.162 580.681, 636.084 578.189 C 636.045 576.917, 636.730 574.489, 637.607 572.793 C 638.990 570.118, 639.002 569.785, 637.699 570.285 C 636.872 570.603, 635.889 570.556, 635.514 570.181 C 635.140 569.806, 633.633 569.406, 632.167 569.291 C 626.694 568.861, 622 567.753, 622 566.891 C 622 566.401, 620.200 566, 618 566 C 615.800 566, 614 565.550, 614 565 C 614 564.450, 612.200 564, 610 564 C 607.800 564, 606 563.550, 606 563 C 606 562.450, 605.019 562, 603.821 562 C 602.623 562, 600.159 561.464, 598.346 560.808 C 596.533 560.153, 594.701 559.989, 594.275 560.445 C 593.849 560.901, 594.063 561.475, 594.750 561.720 C 595.438 561.966, 596 563.029, 596 564.083 C 596 565.138, 596.450 566, 597 566 C 597.550 566, 598 566.690, 598 567.533 C 598 569.524, 591.524 576, 589.533 576 C 588.690 576, 588 576.340, 588 576.757 C 588 577.822, 580.626 580, 577.016 580 C 575.357 580, 574 580.450, 574 581 C 574 581.588, 570.516 582, 565.547 582 C 560.898 582, 555.915 582.537, 554.473 583.194 C 552.473 584.106, 551.410 584.113, 549.987 583.224 C 548.747 582.449, 542.165 582.066, 530.328 582.079 C 518.779 582.092, 512.410 581.730, 512.183 581.049 C 511.991 580.472, 510.971 580, 509.917 580 C 508.863 580, 508 579.550, 508 579 C 508 578.450, 507.100 578, 506 578 C 504.900 578, 504 577.550, 504 577 C 504 576.450, 503.361 576, 502.579 576 C 500.942 576, 492 567.368, 492 565.788 C 492 565.209, 491.212 564.007, 490.250 563.117 C 488.438 561.443, 488.107 560.561, 487.773 556.527 C 487.664 555.217, 487.221 554.363, 486.788 554.631 C 486.355 554.899, 486 553.966, 486 552.559 C 486 551.152, 486.450 550, 487 550 C 487.550 550, 488 548.671, 488 547.047 C 488 545.423, 488.556 542.835, 489.236 541.297 C 490.731 537.915, 500.721 528, 502.634 528 C 503.385 528, 504 527.550, 504 527 C 504 526.450, 504.900 526, 506 526 C 507.100 526, 508 525.550, 508 525 C 508 524.450, 509.098 524, 510.441 524 C 511.784 524, 513.160 523.550, 513.500 523 C 513.840 522.450, 515.891 522, 518.059 522 C 520.227 522, 522 521.550, 522 521 C 522 520.450, 523.135 520, 524.522 520 C 526.244 520, 528.781 518.263, 532.522 514.522 C 535.535 511.509, 538 508.587, 538 508.028 C 538 507.470, 540.700 504.271, 544 500.919 C 547.300 497.568, 550 494.386, 550 493.848 C 550 493.310, 552.250 490.679, 555 488 C 557.750 485.321, 560 482.641, 560 482.043 C 560 481.446, 562.465 478.491, 565.478 475.478 C 569.771 471.185, 571.631 470, 574.072 470 C 576.346 470, 577.328 470.540, 577.710 472 C 577.998 473.100, 578.631 474, 579.117 474 C 579.602 474, 580 475.350, 580 477 C 580 478.650, 580.429 480, 580.953 480 C 581.501 480, 582.089 486.914, 582.336 496.250 C 582.800 513.824, 583.575 519.940, 585.359 520.106 C 585.987 520.164, 593.925 520.325, 603 520.465 C 620.580 520.734, 643.447 522.306, 646.110 523.428 C 647.379 523.963, 647.854 523.299, 648.349 520.303 C 648.695 518.212, 648.983 515.349, 648.989 513.941 C 648.995 512.534, 649.598 510.564, 650.329 509.564 C 651.599 507.827, 652.085 507.819, 661.203 509.373 C 678.310 512.289, 693.277 511.161, 704.400 506.118 C 719.237 499.390, 737.718 481.706, 742.938 469.240 C 745.391 463.381, 748 449.576, 748 442.452 C 748 435.822, 745.544 424.987, 742.840 419.686 C 730.841 396.166, 711.073 382.516, 684.008 379.061 C 674.459 377.843, 665.684 378.991, 650.250 383.480 C 648.365 384.029, 648 383.750, 648 381.762 C 648 380.456, 647.148 376.713, 646.106 373.444 C 645.064 370.175, 643.823 365.971, 643.348 364.102 C 641.844 358.188, 638.369 356.549, 626.506 356.161 L 616.152 355.822 619.048 352.792 C 621.397 350.334, 621.749 349.399, 620.911 347.833 C 619.412 345.032, 615.251 343.764, 609.157 344.252 C 605.188 344.570, 603.676 344.318, 603.274 343.273 C 602.606 341.532, 603.970 340.084, 606.786 339.541 C 610.139 338.895, 615.652 336.042, 617.507 333.992 C 619.106 332.225, 619.023 331.911, 615.922 328.052 C 612.685 324.025, 612.589 323.985, 607.574 324.620 C 604.783 324.973, 600.578 325.899, 598.230 326.677 C 591.889 328.780, 589.787 326.428, 594.255 322.230 C 597.604 319.084, 602.448 309.610, 601.702 307.666 C 600.801 305.318, 598.337 305.654, 592 308.988 M 404.103 340.110 C 385.007 341.806, 366.555 348.099, 355.525 356.677 C 343.657 365.907, 335.055 380.598, 330.438 399.524 C 328.239 408.536, 327.758 412.826, 327.749 423.500 C 327.740 434.811, 328.077 437.539, 330.344 444.500 C 339.521 472.676, 362.629 491.140, 395.508 496.568 C 403.463 497.882, 409.271 498.093, 424 497.605 C 444.839 496.914, 453.491 495.872, 462.253 492.995 C 489.363 484.095, 510.897 462.505, 516.421 438.683 C 518.390 430.195, 518.406 424.051, 516.489 412.235 C 511.014 378.473, 489.715 353.325, 458 343.174 C 445.421 339.148, 426.831 338.091, 404.103 340.110 M 375.752 369.154 C 372.590 369.580, 368.990 370.455, 367.752 371.101 C 352.536 379.026, 342.848 396.155, 342.841 415.140 C 342.838 422.899, 343.188 424.529, 346.282 431.140 C 354.722 449.179, 372.276 457.994, 395.500 455.857 C 404.502 455.028, 412.744 450.864, 420.260 443.349 C 427.371 436.238, 431.347 428.662, 433.410 418.293 C 434.924 410.685, 434.923 409.556, 433.392 402.825 C 431.230 393.319, 428.695 388.591, 422.487 382.482 C 411.625 371.797, 393.829 366.721, 375.752 369.154 M 663.500 385.015 C 656.740 386.359, 646.775 390.012, 641 393.262 C 632.595 397.992, 619.939 411.160, 616.178 419.088 C 601.241 450.572, 614.572 485.226, 647.264 499.894 C 656.914 504.224, 665.444 506, 676.564 505.997 C 705.896 505.987, 730.808 489.028, 740.292 462.613 C 743.475 453.749, 743.388 436.169, 740.117 427.215 C 736.792 418.117, 733.462 412.613, 727.167 405.814 C 714.081 391.679, 695.887 383.876, 676.562 384.110 C 671.578 384.170, 665.700 384.577, 663.500 385.015 M 370.923 388.923 C 363.083 396.763, 372.800 407.855, 383 402.709 C 386.205 401.092, 388.100 395.587, 386.768 391.765 C 384.543 385.382, 375.997 383.849, 370.923 388.923 M 693.994 413.875 C 683.066 417.458, 675.363 426.118, 673.006 437.469 C 669.991 451.995, 676.724 466.293, 689.530 472.558 C 693.777 474.636, 696.350 475.176, 702 475.176 C 714.006 475.176, 722.616 469.626, 728.647 458 C 731.156 453.163, 731.491 451.475, 731.428 444 C 731.369 436.917, 730.928 434.667, 728.782 430.500 C 725.572 424.267, 720.165 418.638, 714.694 415.834 C 710.152 413.505, 698.487 412.402, 693.994 413.875 M 699.087 433.338 C 697.126 437.002, 698.071 441.281, 701.169 442.758 C 707 445.540, 712.198 439.004, 708.565 433.459 C 706.349 430.078, 700.869 430.007, 699.087 433.338" stroke="none" fill="#07888e" fill-rule="evenodd"/><path d="M 0 500.001 L 0 1000.003 375.250 999.751 L 750.500 999.500 750.751 499.750 L 751.002 0 375.501 0 L 0 0 0 500.001 M 0.496 500.500 C 0.496 775.500, 0.610 887.851, 0.750 750.168 C 0.890 612.486, 0.890 387.486, 0.750 250.168 C 0.610 112.851, 0.496 225.500, 0.496 500.500 M 95.500 232.681 C 86.741 233.435, 64.851 237.339, 53.541 240.164 C 42.825 242.840, 35.730 245.288, 26.485 249.498 C 24.827 250.253, 22.352 251.299, 20.985 251.823 C 15.943 253.754, 6.347 261.749, 4.427 265.618 C 1.438 271.639, 1.801 297.081, 5.087 311.952 C 7.544 323.070, 19.700 358.389, 24.550 368.500 C 26.396 372.350, 29.929 379.775, 32.401 385 C 34.872 390.225, 37.530 395.625, 38.307 397 C 39.085 398.375, 41.784 403.775, 44.306 409 C 46.828 414.225, 51.764 423.428, 55.275 429.451 C 60.889 439.083, 61.580 440.830, 61.012 443.951 C 60.305 447.835, 60.469 509.741, 61.206 517 C 61.457 519.475, 62.170 524.650, 62.791 528.500 C 64.004 536.024, 64.826 545.866, 65.506 561.010 C 65.758 566.646, 66.972 574.523, 68.484 580.343 C 69.888 585.745, 72.154 598.116, 73.520 607.833 C 74.885 617.550, 76.664 628.650, 77.472 632.500 C 78.995 639.754, 79.466 642.689, 81 654.500 C 82.633 667.072, 84.466 674.951, 90.536 695.500 C 92.430 701.911, 92.573 703.891, 91.458 708.293 C 90.502 712.067, 93.457 724.022, 97.194 731.500 C 104.011 745.142, 123.030 757.195, 140.196 758.752 C 147.420 759.407, 149.428 758.096, 148.531 753.314 C 148.015 750.561, 148.213 750.001, 149.705 750.004 C 150.692 750.006, 152.850 750.819, 154.500 751.810 C 159.807 754.998, 168.603 757.283, 170.881 756.064 C 174.538 754.107, 176 750.850, 176 744.661 C 176 739.499, 176.217 738.837, 177.750 739.332 C 178.713 739.642, 181.960 740.748, 184.966 741.790 C 189.628 743.404, 191.099 743.512, 194.966 742.527 C 206.739 739.526, 202.188 730.364, 182.589 717.615 C 167.057 707.511, 148.825 699, 142.713 699 C 140.017 699, 140.767 696.583, 148.280 681.065 C 151.701 673.999, 155.625 665.703, 157 662.630 C 158.375 659.556, 159.784 657.032, 160.131 657.021 C 160.478 657.009, 163.822 658.152, 167.562 659.560 C 173.526 661.804, 181.461 663.747, 191.500 665.421 C 193.150 665.696, 196.300 666.354, 198.500 666.882 C 200.700 667.410, 205.650 668.107, 209.500 668.431 C 227.196 669.919, 231 670.829, 231 673.573 C 231 674.373, 231.397 675.809, 231.883 676.764 C 233.487 679.916, 234.836 683.464, 235.396 686 C 235.700 687.375, 237.139 689.850, 238.593 691.500 C 240.048 693.150, 242.952 696.798, 245.046 699.608 C 251.521 708.296, 258.134 712.680, 269.044 715.518 C 278.710 718.033, 278.636 718.024, 290.977 718.094 C 301.188 718.151, 302.627 717.943, 304.030 716.211 C 305.397 714.523, 306.810 714.280, 314.645 714.382 C 324.590 714.512, 326.674 713.647, 327.191 709.177 C 327.471 706.749, 327.890 706.500, 331.698 706.500 C 336.748 706.500, 338.337 705.140, 338.217 700.917 C 338.107 697.051, 334.354 692.857, 328.574 690.140 C 323.028 687.533, 310.439 683.350, 305.500 682.473 C 303.300 682.082, 299.043 681.141, 296.040 680.381 C 293.037 679.622, 288.424 679, 285.790 679 C 283.079 679, 281 678.539, 281 677.939 C 281 677.270, 282.572 677.082, 285.250 677.431 C 287.587 677.735, 294.900 678.480, 301.500 679.087 C 308.100 679.693, 315.075 680.344, 317 680.533 C 322.830 681.106, 334.986 681.982, 344.401 682.508 C 349.296 682.782, 353.919 683.517, 354.673 684.143 C 355.427 684.769, 356.008 686.680, 355.963 688.391 C 355.878 691.696, 356.635 698.859, 357.507 703 C 358.236 706.462, 358.651 708.779, 359.473 714 C 359.863 716.475, 361.743 723.675, 363.650 730 C 373.572 762.899, 375.470 766.864, 383.794 772.065 C 391.786 777.058, 399.685 779.331, 406.779 778.678 C 418.170 777.629, 429.390 773.768, 433.803 769.379 C 436.860 766.338, 437.090 765.661, 436.884 760.297 C 436.625 753.547, 434.725 748.237, 431.666 745.713 C 430.475 744.731, 426.913 742.587, 423.750 740.949 C 420.587 739.311, 418.009 737.415, 418.020 736.736 C 418.048 734.974, 420.759 710.461, 421.585 704.500 C 422.402 698.595, 423.701 695.697, 425.133 696.582 C 426.114 697.188, 431.274 696.311, 453 691.842 C 458.225 690.767, 468.800 688.766, 476.500 687.394 C 491.986 684.636, 498.102 683.038, 506.988 679.427 C 510.273 678.092, 514.533 677, 516.455 677 L 519.950 677 519.362 695.356 C 518.704 715.906, 519.872 723.181, 524.403 726.745 C 529.172 730.496, 550.948 731.827, 562.438 729.071 C 564.605 728.551, 566.630 728.151, 566.938 728.181 C 570.302 728.514, 573.393 727.540, 576.042 725.311 C 579.197 722.656, 579.229 722.540, 578.570 716.110 C 578.127 711.786, 576.900 707.717, 574.918 703.998 C 571.535 697.651, 571.013 692.024, 572.335 676.174 C 573.467 662.592, 573.254 662.852, 586.860 658.497 C 601 653.972, 604.711 652.152, 612.672 645.844 C 618.171 641.486, 619.133 640.165, 621.505 633.726 C 626.797 619.362, 627.819 615.733, 628.963 607.255 C 629.426 603.820, 630.702 598.645, 631.798 595.755 C 634.153 589.546, 635.987 582.761, 636.526 578.265 C 637.102 573.456, 638.840 570.722, 640.827 571.500 C 643.637 572.601, 665.106 572.890, 671.848 571.917 C 679.592 570.800, 683.624 568.964, 689.295 563.972 C 697.779 556.503, 697.843 545.552, 689.444 538.159 C 682.226 531.806, 674.624 528.408, 662 525.892 C 655.675 524.632, 649.971 523.128, 649.325 522.550 C 648.424 521.746, 648.428 519.979, 649.338 515 C 650.645 507.852, 650.546 507.906, 659.500 509.496 C 676.714 512.555, 693.801 511.356, 705 506.304 C 717.560 500.638, 736.450 482.986, 741.854 471.865 C 747.539 460.167, 749.715 441.896, 746.828 430.104 C 744.263 419.625, 735.478 405.312, 726.849 397.555 C 721.140 392.422, 707.547 384, 704.971 384 C 704.107 384, 702.973 383.611, 702.450 383.136 C 701.137 381.942, 694.053 380.341, 684.202 379.011 C 677.325 378.083, 674.073 378.177, 665.202 379.561 C 659.316 380.479, 653.320 381.835, 651.877 382.575 C 648.712 384.198, 648 383.640, 648 379.533 C 648 377.810, 647.460 375.860, 646.800 375.200 C 646.140 374.540, 645.904 374, 646.275 374 C 646.647 374, 646.472 372.762, 645.886 371.250 C 645.301 369.738, 644.666 367.729, 644.476 366.787 C 644.285 365.845, 643.384 363.504, 642.473 361.585 C 640.377 357.168, 637.233 356.096, 625.387 355.759 C 617.578 355.537, 616.539 355.314, 618.129 354.199 C 620.641 352.437, 622.119 349.473, 621.408 347.621 C 620.596 345.505, 615.002 343.845, 608.486 343.786 C 604.606 343.751, 603 343.347, 603 342.404 C 603 340.999, 606.388 338.721, 607.227 339.561 C 608.037 340.370, 617.824 334.901, 618.441 333.294 C 618.763 332.454, 617.635 330.065, 615.855 327.817 C 612.806 323.967, 612.540 323.851, 608.099 324.427 C 603.147 325.069, 597.487 326.360, 594.879 327.442 C 592.125 328.585, 591.949 325.366, 594.601 322.332 C 595.962 320.775, 598.451 317.122, 600.131 314.215 C 602.600 309.944, 602.953 308.649, 601.971 307.465 C 600.233 305.371, 597.976 305.639, 592.403 308.603 C 589.710 310.034, 584.743 312.312, 581.365 313.665 C 577.986 315.017, 571.703 318.346, 567.402 321.062 C 563.101 323.778, 558.804 326, 557.853 326 C 556.902 326, 552.877 327.762, 548.907 329.916 C 543.162 333.034, 541.211 333.651, 539.345 332.941 C 538.055 332.451, 537 332.260, 537 332.517 C 537 332.774, 535.313 332.348, 533.250 331.570 C 524.145 328.139, 514.803 325.926, 505.841 325.080 C 500.529 324.579, 495.354 323.739, 494.341 323.214 C 491.778 321.887, 478.791 319.246, 471 318.468 C 467.425 318.112, 462.475 317.369, 460 316.819 C 457.525 316.269, 449.425 315.642, 442 315.426 C 434.575 315.210, 422.650 314.749, 415.500 314.401 C 379.146 312.631, 330.774 314.494, 308.500 318.522 C 304.100 319.318, 293.975 321.097, 286 322.475 C 278.025 323.854, 269.475 325.466, 267 326.057 C 256.386 328.594, 241.761 331.933, 239.279 332.386 C 238.607 332.509, 237.745 332.922, 237.362 333.304 C 236.980 333.687, 235.823 334, 234.791 334 C 233.759 334, 226.747 336.072, 219.208 338.603 C 211.668 341.135, 205.050 343.309, 204.500 343.435 C 203.950 343.560, 201.475 344.228, 199 344.919 C 194.767 346.101, 191.595 347.271, 175.428 353.616 C 171.806 355.037, 168.217 356.292, 167.451 356.404 C 166.685 356.517, 165.745 356.922, 165.362 357.304 C 162.412 360.255, 160.838 354.663, 162.012 345.402 C 163.089 336.908, 164.413 333.614, 180.461 299.500 C 184.288 291.363, 184.119 291.818, 188.652 277.500 C 191.621 268.121, 192.126 265.141, 192.074 257.274 C 192.026 250.058, 191.534 246.951, 189.813 243.011 C 187.205 237.037, 186.890 236.916, 166.307 233.993 C 155.066 232.396, 147.575 232.060, 126 232.184 C 111.425 232.268, 97.700 232.491, 95.500 232.681 M 407.144 340.031 C 378.508 342.271, 357.517 351.363, 346.114 366.465 C 337.574 377.777, 333.238 387.719, 330.025 403.360 C 322.466 440.159, 335.738 470.530, 366.500 486.831 C 370.835 489.128, 374.979 490.869, 382 493.341 C 400.696 499.924, 453.083 498.446, 466.927 490.944 C 467.792 490.475, 470.750 489.147, 473.500 487.993 C 487.846 481.974, 504.120 466.595, 510.845 452.703 C 513.134 447.973, 515.396 441.389, 516.079 437.466 C 517.815 427.499, 516.686 410.536, 513.607 400.310 C 504.089 368.698, 481.741 348.324, 448.500 340.954 C 442.211 339.560, 419.617 339.055, 407.144 340.031 M 371.992 369.424 C 369.513 370.109, 365.642 371.832, 363.391 373.253 C 359.276 375.851, 350 385.653, 350 387.404 C 350 387.920, 349.383 389.053, 348.629 389.921 C 345.302 393.752, 342.708 404.341, 342.603 414.521 C 342.505 424.012, 342.681 424.910, 345.930 431.521 C 352.522 444.933, 365.185 453.933, 380.453 456.057 C 406.127 459.628, 426.070 446.527, 432.909 421.599 C 435.510 412.118, 435.517 409.326, 432.962 400.104 C 428.252 383.110, 414.183 371.736, 394.500 369.009 C 385.339 367.740, 377.569 367.884, 371.992 369.424 M 667.894 384.439 C 667.653 384.681, 664.151 385.567, 660.114 386.409 C 634.272 391.797, 613.988 412.990, 610.978 437.744 C 608.808 455.592, 613.760 471.097, 625.776 484.076 C 631.644 490.413, 644.981 500, 647.930 500 C 648.624 500, 650.386 500.647, 651.846 501.437 C 653.306 502.227, 657.818 503.577, 661.873 504.437 C 691.800 510.781, 723.249 496.625, 736.605 470.797 C 742.875 458.673, 744.349 440.188, 740.013 428.057 C 733.702 410.397, 722.292 398.424, 703 389.216 C 695.970 385.860, 670.006 382.328, 667.894 384.439 M 373.430 386.914 C 370.822 388.033, 368 392.267, 368 395.060 C 368 398.331, 371.688 402.773, 375.010 403.502 C 379.292 404.443, 384.929 402.318, 386.062 399.337 C 388.621 392.606, 385.741 387.101, 379.307 386.425 C 377.213 386.205, 374.568 386.425, 373.430 386.914 M 692.953 413.887 C 688.870 415.220, 682.554 419.552, 679.631 423.027 C 675.935 427.420, 674.432 430.543, 672.583 437.681 C 671.140 443.250, 671.143 444.386, 672.617 450.915 C 676.807 469.467, 694.428 480.108, 711.260 474.250 C 717.697 472.010, 725.379 465.135, 728.740 458.608 C 730.985 454.249, 731.380 452.180, 731.435 444.500 C 731.509 434.161, 729.435 428.577, 723.110 422.084 C 716.840 415.648, 712.506 413.722, 703.500 413.369 C 699.100 413.197, 694.354 413.430, 692.953 413.887 M 699.655 432.829 C 697.338 435.389, 697.499 440.662, 699.934 441.965 C 706.251 445.346, 711.377 440.554, 708.282 434.162 C 706.491 430.465, 702.371 429.828, 699.655 432.829" stroke="none" fill="#fbf5ef" fill-rule="evenodd"/></svg>