<svg xmlns="http://www.w3.org/2000/svg" width="750" height="1000" viewBox="0 0 750 1000" version="1.1"><path d="M 112 237.954 C 112 238.254, 110.537 238.527, 108.750 238.559 C 99.588 238.726, 80.331 240.284, 79.011 240.965 C 78.180 241.393, 73.675 242.291, 69 242.961 C 64.325 243.630, 60.050 244.526, 59.500 244.951 C 58.950 245.376, 56.295 246.011, 53.600 246.363 C 50.906 246.715, 47.423 247.640, 45.861 248.420 C 44.298 249.199, 41.642 250.139, 39.957 250.509 C 37.398 251.072, 29.190 255.015, 16.448 261.805 C 15.102 262.522, 14 263.535, 14 264.055 C 14 264.575, 13.325 265, 12.500 265 C 11.675 265, 10.997 265.563, 10.994 266.250 C 10.990 266.938, 10.293 268.833, 9.443 270.462 C 7.565 274.063, 7.264 297.408, 9.067 299.580 C 9.675 300.313, 9.954 301.270, 9.688 301.706 C 9.033 302.780, 13.624 322.813, 15.713 328 C 16.046 328.825, 16.246 329.837, 16.159 330.250 C 15.919 331.384, 17.452 331.148, 18.749 329.851 C 19.614 328.986, 20.589 329.169, 22.699 330.589 C 27.229 333.640, 29.094 334.681, 37 338.571 C 56.387 348.109, 56.137 348.066, 63.361 343.096 C 65.836 341.393, 68.165 340, 68.536 340 C 68.908 340, 70.917 338.650, 73 337 C 75.083 335.350, 77.111 334, 77.506 334 C 78.755 334, 107 314.786, 107 313.936 C 107 313.490, 106.213 313.132, 105.250 313.141 C 103.183 313.161, 95.351 311.202, 92.500 309.953 C 91.400 309.471, 87.851 308.613, 84.613 308.047 C 81.375 307.480, 78.225 306.622, 77.613 306.139 C 77.001 305.656, 74.700 304.937, 72.500 304.541 C 70.300 304.145, 68.050 303.479, 67.500 303.060 C 66.950 302.642, 63.688 301.721, 60.250 301.013 C 56.813 300.306, 54 299.398, 54 298.996 C 54 298.594, 51.862 297.800, 49.250 297.231 C 42.578 295.778, 26.647 289.925, 25.765 288.602 C 25.361 287.996, 25.024 287.802, 25.015 288.171 C 25.007 288.540, 23.088 287.811, 20.750 286.550 C 8.879 280.151, 7.785 279, 10.608 275.881 C 12.210 274.111, 12.355 274.116, 15.084 276.060 C 20.165 279.678, 33.563 285.934, 38.835 287.151 C 41.676 287.807, 44 288.696, 44 289.126 C 44 289.557, 45.688 290.213, 47.750 290.585 C 49.813 290.957, 52.043 291.691, 52.706 292.216 C 53.370 292.742, 54.351 292.901, 54.887 292.570 C 55.423 292.238, 56.144 292.425, 56.490 292.984 C 56.835 293.543, 57.879 294.003, 58.809 294.006 C 59.739 294.010, 61.735 294.657, 63.245 295.444 C 64.754 296.232, 68.022 297.181, 70.507 297.553 C 72.992 297.926, 75.275 298.636, 75.581 299.132 C 75.888 299.627, 76.577 299.762, 77.113 299.430 C 77.649 299.099, 78.630 299.276, 79.294 299.824 C 79.957 300.373, 82.300 301.145, 84.500 301.541 C 86.700 301.937, 88.950 302.580, 89.500 302.971 C 90.050 303.362, 93.763 304.244, 97.750 304.931 C 101.737 305.619, 105 306.528, 105 306.952 C 105 309.212, 115.110 308.867, 118.771 306.482 C 126.568 301.402, 141.239 291.135, 143.708 289.030 C 144.372 288.463, 145.196 288, 145.539 288 C 145.883 288, 148.085 286.425, 150.435 284.500 C 152.784 282.575, 155.113 281, 155.610 281 C 156.107 281, 158.983 278.975, 162 276.500 C 165.017 274.025, 167.877 272, 168.354 272 C 168.832 272, 171.310 270.266, 173.861 268.146 C 179.902 263.128, 182.204 261.979, 184.838 262.668 C 186.823 263.187, 187 262.856, 187 258.617 C 187 256.034, 186.533 254, 185.941 254 C 185.359 254, 185.154 253.560, 185.486 253.023 C 188.315 248.445, 181.516 241.612, 174 241.482 C 172.625 241.458, 171.018 241.138, 170.429 240.771 C 169.840 240.403, 163.540 239.820, 156.429 239.474 C 149.318 239.127, 142.825 238.585, 142 238.269 C 139.761 237.410, 137.745 237.375, 135.377 238.155 C 134.161 238.555, 132.755 238.355, 132.085 237.685 C 131.194 236.794, 130.719 236.836, 130.083 237.865 C 129.612 238.627, 128.995 238.802, 128.664 238.266 C 127.889 237.011, 119 236.904, 119 238.149 C 119 238.686, 118.442 238.760, 117.750 238.316 C 116.324 237.401, 112 237.128, 112 237.954 M 181.182 270.500 C 179.548 271.875, 177.898 273, 177.515 273 C 177.131 273, 174.978 274.575, 172.729 276.500 C 170.480 278.425, 168.261 280, 167.799 280 C 167.336 280, 164.094 282.250, 160.595 285 C 157.095 287.750, 153.872 290, 153.431 290 C 152.990 290, 151.700 290.857, 150.564 291.904 C 148.483 293.824, 142.367 298.125, 129.500 306.718 L 122.500 311.392 127.500 312.217 C 130.250 312.670, 133.400 313.466, 134.500 313.986 C 136.421 314.893, 145.887 316.976, 149 317.176 C 149.825 317.229, 150.950 317.611, 151.500 318.025 C 153.568 319.581, 165 320.290, 165 318.863 C 165 317.497, 170.003 306.902, 171.073 306 C 172.016 305.205, 177 294.245, 177 292.966 C 177 292.330, 177.635 290.614, 178.411 289.154 C 179.807 286.529, 182.452 279.967, 182.504 279 C 182.519 278.725, 182.809 278.050, 183.150 277.500 C 184.001 276.125, 185.297 268, 184.665 268 C 184.383 268, 182.816 269.125, 181.182 270.500 M 110.500 320 C 107.750 322.188, 105.115 323.984, 104.644 323.989 C 104.173 323.995, 102.083 325.350, 100 327 C 97.917 328.650, 95.892 330, 95.500 330 C 95.108 330, 93.148 331.238, 91.144 332.750 C 89.140 334.262, 86.487 336.063, 85.250 336.750 C 80.536 339.369, 78.567 340.525, 77.551 341.273 C 76.973 341.698, 73.800 343.948, 70.500 346.272 L 64.500 350.499 68.250 351.426 C 70.313 351.936, 72 352.750, 72 353.235 C 72 353.721, 72.470 353.828, 73.044 353.473 C 73.618 353.118, 74.630 353.265, 75.294 353.798 C 75.957 354.332, 78.075 355.098, 80 355.500 C 81.925 355.902, 83.950 356.572, 84.500 356.989 C 85.050 357.405, 88.200 358.467, 91.500 359.349 C 94.800 360.230, 99.975 361.668, 103 362.543 C 106.025 363.419, 108.950 364.231, 109.500 364.346 C 110.050 364.462, 110.976 364.854, 111.557 365.218 C 114.792 367.243, 122.537 367.169, 124.413 365.097 C 125.456 363.943, 126.707 363, 127.192 363 C 127.677 363, 130.695 360.413, 133.899 357.250 C 137.103 354.087, 140.890 350.600, 142.316 349.500 C 143.741 348.400, 144.928 346.938, 144.954 346.250 C 144.979 345.563, 145.471 345, 146.048 345 C 147.267 345, 152 340.113, 152 338.854 C 152 338.384, 153.300 338, 154.889 338 C 157.436 338, 157.860 337.556, 158.478 334.250 C 158.864 332.188, 159.627 329.957, 160.176 329.294 C 161.487 327.706, 160.361 326, 158 326 C 156.965 326, 155.865 325.590, 155.555 325.089 C 155.245 324.587, 153.857 324.302, 152.471 324.454 C 151.085 324.606, 149.730 324.372, 149.460 323.935 C 149.190 323.498, 146.388 322.828, 143.234 322.447 C 140.080 322.065, 137.050 321.410, 136.500 320.991 C 135.950 320.572, 132.239 319.687, 128.254 319.025 C 124.268 318.362, 120.754 317.411, 120.445 316.910 C 119.241 314.963, 115.284 316.193, 110.500 320 M 20.591 342.750 C 21.967 346.462, 23.747 350.918, 24.547 352.651 C 25.346 354.384, 26.014 356.409, 26.032 357.151 C 26.131 361.345, 28.681 362.370, 33.445 360.131 C 35.938 358.959, 38.396 358, 38.906 358 C 39.416 358, 39.983 357.663, 40.167 357.250 C 40.350 356.837, 42.607 355.401, 45.183 354.058 L 49.866 351.615 46.183 349.941 C 34.743 344.741, 26.133 340.344, 23.406 338.309 C 18.407 334.579, 17.875 335.420, 20.591 342.750 M 154 346.005 C 154 346.987, 146.514 354.623, 141.848 358.400 C 139.874 359.998, 135.128 364.185, 126.916 371.575 C 126.045 372.359, 125.002 373, 124.599 373 C 124.196 373, 122.434 374.063, 120.683 375.362 C 114.879 379.670, 109.332 378.986, 111.853 374.274 C 113.173 371.808, 111.478 371.029, 97.500 367.683 C 96.950 367.551, 96.050 367.178, 95.500 366.853 C 94.950 366.528, 92.700 365.938, 90.500 365.542 C 88.300 365.145, 86.050 364.497, 85.500 364.101 C 84.950 363.705, 80.450 362.127, 75.500 360.595 C 70.550 359.062, 65.375 357.237, 64 356.540 C 60.174 354.599, 56.192 353.880, 55.498 355.004 C 55.154 355.560, 53.214 356.841, 51.186 357.851 C 45.884 360.492, 40.582 363.416, 40.001 364.020 C 39.134 364.921, 33.535 367.357, 32.750 367.175 C 31.204 366.815, 32.085 371.054, 34.500 375.596 C 35.875 378.182, 37 381.083, 37 382.042 C 37 383.001, 37.675 384.045, 38.500 384.362 C 39.325 384.678, 40 385.761, 40 386.769 C 40 387.776, 40.540 389.140, 41.200 389.800 C 41.860 390.460, 42.032 391, 41.581 391 C 40.283 391, 45.671 397.611, 51.179 402.776 C 58.233 409.393, 64.180 410.173, 71.500 405.443 C 78.479 400.933, 96.955 390.124, 106.500 384.967 C 117.556 378.993, 141.324 367, 142.107 367 C 144.554 367, 158.208 359.746, 157.076 359.047 C 156.214 358.514, 155.706 355.914, 155.625 351.616 C 155.529 346.554, 154 341.274, 154 346.005 M 52.500 412.684 C 53.842 413.779, 55.444 416.447, 58.595 422.836 C 60.043 425.772, 61.580 427.797, 62.012 427.336 C 63.132 426.144, 64.378 413.886, 63.352 414.156 C 62.582 414.359, 58.943 413.696, 53.500 412.360 C 52.382 412.086, 51.941 412.229, 52.500 412.684 M 593.797 525.745 C 598.361 525.930, 605.561 525.929, 609.797 525.742 C 614.034 525.555, 610.300 525.404, 601.500 525.405 C 592.700 525.406, 589.234 525.559, 593.797 525.745 M 540.250 548.745 C 545.063 548.928, 552.938 548.928, 557.750 548.745 C 562.563 548.561, 558.625 548.411, 549 548.411 C 539.375 548.411, 535.438 548.561, 540.250 548.745 M 108 711.250 C 108 711.663, 112.950 712, 119 712 C 125.050 712, 130 711.663, 130 711.250 C 130 710.837, 125.050 710.500, 119 710.500 C 112.950 710.500, 108 710.837, 108 711.250" stroke="none" fill="#ff9849" fill-rule="evenodd"/><path d="M 570.285 477.700 C 569.926 478.635, 567.128 482.042, 564.066 485.272 C 561.005 488.502, 558.313 491.674, 558.085 492.322 C 557.857 492.970, 556.394 494.693, 554.835 496.151 C 553.276 497.609, 552 499.522, 552 500.401 C 552 501.281, 551.555 502, 551.011 502 C 549.490 502, 546 505.288, 546 506.722 C 546 507.425, 545.550 508, 545 508 C 544.450 508, 544 508.900, 544 510 C 544 511.100, 543.423 512, 542.719 512 C 541.221 512, 530 523.082, 530 524.562 C 530 525.113, 527.963 525.654, 525.472 525.762 C 522.982 525.870, 520.087 526.418, 519.038 526.980 C 517.989 527.541, 515.977 528, 514.566 528 C 513.155 528, 511.996 528.337, 511.992 528.750 C 511.983 529.592, 507.188 532, 505.521 532 C 504.927 532, 503.793 532.900, 503 534 C 502.207 535.100, 500.969 536, 500.248 536 C 499.527 536, 498.645 536.788, 498.288 537.750 C 497.931 538.712, 496.928 540.175, 496.060 541 C 491.555 545.279, 490.859 560, 495.161 560 C 495.622 560, 496 560.687, 496 561.526 C 496 563.511, 504.489 572, 506.474 572 C 507.313 572, 508 572.450, 508 573 C 508 573.550, 508.900 574, 510 574 C 511.100 574, 512 574.450, 512 575 C 512 575.550, 513.323 576, 514.941 576 C 516.559 576, 518.160 576.450, 518.500 577 C 518.884 577.621, 528.157 578, 543 578 C 557.843 578, 567.116 577.621, 567.500 577 C 567.840 576.450, 569.467 576, 571.116 576 C 583.504 576, 597.963 567.149, 590.250 564.288 C 589.288 563.931, 587.772 562.820, 586.883 561.819 C 585.993 560.819, 584.531 560, 583.633 560 C 582.735 560, 582 559.642, 582 559.204 C 582 558.767, 580.313 558.295, 578.252 558.156 C 576.191 558.018, 574.076 557.476, 573.552 556.952 C 573.028 556.428, 570.665 556, 568.300 556 C 565.935 556, 564 555.550, 564 555 C 564 554.381, 558.667 554, 550 554 C 542.300 554, 536 554.379, 536 554.842 C 536 555.306, 532.996 555.782, 529.325 555.901 C 525.654 556.020, 521.858 556.541, 520.891 557.058 C 516.448 559.436, 510 558.217, 510 555 C 510 552.167, 510.222 552, 514 552 C 516.200 552, 518 551.588, 518 551.085 C 518 550.582, 521.038 549.880, 524.750 549.525 C 536.569 548.394, 566 547.872, 566 548.793 C 566 549.279, 568.138 549.756, 570.750 549.854 C 573.362 549.952, 575.650 550.475, 575.833 551.016 C 576.017 551.557, 578.353 552, 581.024 552 C 583.696 552, 586.160 552.450, 586.500 553 C 586.840 553.550, 589.116 554, 591.559 554 C 594.002 554, 596 554.450, 596 555 C 596 555.550, 597.155 556, 598.566 556 C 599.977 556, 601.924 556.424, 602.893 556.943 C 603.862 557.461, 605.744 558.067, 607.077 558.289 C 608.410 558.511, 610.175 558.953, 611 559.272 C 612.394 559.811, 614.277 560.193, 622.759 561.658 C 624.552 561.968, 626.266 562.621, 626.568 563.110 C 626.871 563.600, 628.666 564, 630.559 564 C 632.452 564, 634.002 564.337, 634.005 564.750 C 634.008 565.163, 637.945 565.646, 642.755 565.825 C 647.565 566.004, 651.928 566.567, 652.450 567.075 C 653.732 568.323, 666.722 568.258, 667.500 567 C 667.840 566.450, 669.522 566, 671.238 566 C 674.881 566, 680.926 564.043, 682.821 562.250 C 683.548 561.563, 684.492 561, 684.918 561 C 685.345 561, 686.663 560.160, 687.847 559.133 C 690.144 557.141, 691.122 546, 689 546 C 688.450 546, 688 545.425, 688 544.722 C 688 543.078, 685.207 540.702, 681.179 538.919 C 679.431 538.145, 678 537.172, 678 536.756 C 678 536.340, 677.127 536, 676.059 536 C 674.991 536, 673.840 535.550, 673.500 535 C 673.160 534.450, 671.784 534, 670.441 534 C 669.098 534, 668 533.629, 668 533.177 C 668 532.724, 664.400 531.744, 660 531 C 655.600 530.256, 652 529.386, 652 529.068 C 652 528.749, 649.432 528.348, 646.293 528.176 C 643.155 528.003, 640.161 527.599, 639.640 527.277 C 638.580 526.623, 634.469 526.508, 601.339 526.209 L 578.179 526 578.046 515.250 C 577.905 503.889, 577.790 501.791, 576.524 487.543 C 575.621 477.366, 572.377 472.248, 570.285 477.700 M 277.500 684.305 C 274.750 684.771, 269.125 685.377, 265 685.651 C 260.875 685.926, 257.072 686.566, 256.550 687.075 C 255.213 688.377, 247.591 688.226, 244.543 686.838 C 238.618 684.138, 240.774 689.510, 248.929 697.767 C 252.315 701.195, 255.741 704, 256.542 704 C 257.344 704, 258 704.450, 258 705 C 258 705.550, 258.900 706, 260 706 C 261.100 706, 262 706.378, 262 706.839 C 262 708.046, 266.667 710, 269.547 710 C 270.896 710, 272 710.450, 272 711 C 272 711.550, 274.250 712, 277 712 C 279.750 712, 282 712.450, 282 713 C 282 713.583, 285.333 714, 290 714 C 297.333 714, 298 713.833, 298 712 C 298 710.900, 297.550 710, 297 710 C 295.460 710, 295.816 706.285, 297.415 705.671 C 299.202 704.985, 307.996 707.639, 308.004 708.867 C 308.010 709.734, 317.733 710.220, 320.093 709.471 C 322.593 708.677, 322.517 705.932, 319.917 703.141 C 318.248 701.350, 318.073 700.617, 319.039 699.453 C 320.335 697.891, 326 697.424, 326 698.879 C 326 700.136, 331.677 702.318, 332.931 701.542 C 334.268 700.716, 329.685 696, 327.545 696 C 326.695 696, 326 695.550, 326 695 C 326 694.450, 325.100 694, 324 694 C 322.900 694, 322 693.550, 322 693 C 322 692.450, 321.127 692, 320.059 692 C 318.991 692, 317.840 691.550, 317.500 691 C 317.160 690.450, 314.884 690, 312.441 690 C 309.998 690, 308 689.599, 308 689.109 C 308 688.620, 306.538 687.966, 304.750 687.657 C 297.132 686.340, 294.471 685.681, 294 684.996 C 293.191 683.817, 282.914 683.387, 277.500 684.305 M 137.250 705.496 C 136.563 706.277, 136 707.610, 136 708.458 C 136 709.505, 135.036 710, 133 710 C 131.350 710, 130 710.450, 130 711 C 130 711.606, 125.686 712, 119.059 712 C 112.844 712, 107.851 711.568, 107.500 711 C 107.160 710.450, 105.334 710, 103.441 710 C 101.548 710, 100 709.550, 100 709 C 100 708.450, 99.044 708, 97.876 708 C 95.903 708, 95.796 708.372, 96.367 713.250 C 97.456 722.545, 98.199 726, 99.109 726 C 99.599 726, 100 726.608, 100 727.352 C 100 728.095, 101.350 730.116, 103 731.843 C 104.650 733.569, 106 735.661, 106 736.491 C 106 737.333, 106.884 738, 108 738 C 109.111 738, 110 738.667, 110 739.500 C 110 740.325, 110.380 741, 110.844 741 C 111.309 741, 112.996 742.124, 114.594 743.499 C 116.193 744.873, 118.063 745.998, 118.750 745.999 C 119.438 745.999, 120 746.450, 120 747 C 120 747.550, 120.900 748, 122 748 C 123.100 748, 124 748.394, 124 748.875 C 124 749.357, 126.700 750.349, 130 751.081 C 133.300 751.814, 136 752.770, 136 753.206 C 136 753.643, 137.796 754, 139.992 754 C 144.059 754, 145.137 751.267, 142.654 747.249 C 141.425 745.260, 146.315 742.789, 149.262 743.910 C 150.655 744.439, 152.063 744.604, 152.391 744.276 C 152.719 743.948, 153.830 744.651, 154.861 745.840 C 155.891 747.028, 157.469 748, 158.367 748 C 159.265 748, 160 748.450, 160 749 C 160 749.550, 161.260 750, 162.800 750 C 164.340 750, 166.101 750.501, 166.713 751.113 C 168.928 753.328, 170 750.826, 170 743.441 C 170 737.493, 170.301 736, 171.500 736 C 172.325 736, 173 735.550, 173 735 C 173 734.450, 174.575 734, 176.500 734 C 178.425 734, 180 734.401, 180 734.891 C 180 735.380, 181.688 736.069, 183.750 736.420 C 185.813 736.771, 188.923 737.315, 190.662 737.628 C 197.111 738.791, 197.506 736.907, 192.009 731.203 C 189.251 728.342, 186.320 726, 185.497 726 C 184.674 726, 184 725.626, 184 725.169 C 184 724.712, 182.762 723.702, 181.250 722.926 C 179.738 722.149, 177.772 720.723, 176.883 719.757 C 175.993 718.791, 174.568 718, 173.716 718 C 172.864 718, 172.017 717.625, 171.833 717.168 C 171.287 715.804, 160.036 710, 157.938 710 C 156.872 710, 156 709.631, 156 709.181 C 156 708.730, 153.721 707.741, 150.937 706.983 C 148.152 706.224, 145.650 705.243, 145.378 704.802 C 144.553 703.468, 138.587 703.977, 137.250 705.496" stroke="none" fill="#ffa119" fill-rule="evenodd"/><path d="M 99.086 233.041 C 95.558 233.522, 92.288 233.678, 91.820 233.389 C 91.021 232.895, 85.365 233.833, 75 236.180 C 72.525 236.740, 68.250 237.551, 65.500 237.983 C 4.006 247.629, -8.860 269.723, 11.337 331 C 13.240 336.775, 15.374 343.525, 16.079 346 C 16.784 348.475, 17.669 350.950, 18.047 351.500 C 18.425 352.050, 19.709 355.474, 20.901 359.109 C 22.094 362.743, 24.403 367.821, 26.034 370.393 C 27.666 372.965, 29 375.547, 29 376.131 C 29 377.602, 35.665 391.510, 38.592 396.146 C 39.917 398.244, 41 400.456, 41 401.063 C 41 402.272, 48.422 417.583, 49.880 419.381 C 50.943 420.693, 54.683 427.214, 56.829 431.500 C 60.499 438.828, 62 439.755, 62 434.694 C 62 432.177, 62.410 429.865, 62.911 429.555 C 63.411 429.246, 64.148 425.067, 64.548 420.269 C 65.215 412.259, 65.529 411.302, 68.387 408.557 C 70.939 406.106, 71.049 405.845, 69 407.109 C 64.261 410.031, 57.043 408.276, 51.179 402.776 C 45.671 397.611, 40.283 391, 41.581 391 C 42.032 391, 41.860 390.460, 41.200 389.800 C 40.540 389.140, 40 387.776, 40 386.769 C 40 385.761, 39.325 384.678, 38.500 384.362 C 37.675 384.045, 37 383.001, 37 382.042 C 37 381.083, 35.875 378.182, 34.500 375.596 C 32.085 371.054, 31.204 366.815, 32.750 367.175 C 33.535 367.357, 39.134 364.921, 40.001 364.020 C 40.582 363.416, 45.884 360.492, 51.186 357.851 C 53.214 356.841, 55.154 355.560, 55.498 355.004 C 56.192 353.880, 60.174 354.599, 64 356.540 C 65.375 357.237, 70.550 359.062, 75.500 360.595 C 80.450 362.127, 84.950 363.705, 85.500 364.101 C 86.050 364.497, 88.300 365.145, 90.500 365.542 C 92.700 365.938, 94.950 366.528, 95.500 366.853 C 96.050 367.178, 96.950 367.551, 97.500 367.683 C 111.478 371.029, 113.173 371.808, 111.853 374.274 C 109.332 378.986, 114.879 379.670, 120.683 375.362 C 122.434 374.063, 124.196 373, 124.599 373 C 125.002 373, 126.045 372.359, 126.916 371.575 C 135.128 364.185, 139.874 359.998, 141.848 358.400 C 146.514 354.623, 154 346.987, 154 346.005 C 154 341.274, 155.529 346.554, 155.625 351.616 C 155.702 355.690, 156.228 358.523, 156.995 358.997 C 157.917 359.567, 157.755 360.048, 156.370 360.853 C 155.341 361.450, 155.036 361.953, 155.691 361.970 C 156.346 361.986, 157.139 361.585, 157.452 361.077 C 157.766 360.569, 159.365 359.859, 161.005 359.499 C 163.650 358.918, 163.818 358.675, 162.493 357.351 C 159.906 354.763, 161.453 339.041, 164.989 332 C 168.664 324.680, 172 317.445, 172 316.795 C 172 316.423, 174.192 311.480, 176.870 305.810 C 184.380 289.914, 185.977 285.997, 186.641 281.843 C 186.979 279.729, 187.552 278, 187.914 278 C 188.275 278, 188.636 277.212, 188.715 276.250 C 188.793 275.288, 189.595 272.025, 190.497 269 C 193.600 258.590, 191.235 242.211, 186.066 238.321 C 184.470 237.119, 180.271 236.115, 174 235.436 C 172.075 235.228, 165.994 234.462, 160.486 233.735 C 148.933 232.208, 108.552 231.752, 99.086 233.041 M 112 237.954 C 112 238.254, 110.537 238.527, 108.750 238.559 C 99.588 238.726, 80.331 240.284, 79.011 240.965 C 78.180 241.393, 73.675 242.291, 69 242.961 C 64.325 243.630, 60.050 244.526, 59.500 244.951 C 58.950 245.376, 56.295 246.011, 53.600 246.363 C 50.906 246.715, 47.423 247.640, 45.861 248.420 C 44.298 249.199, 41.642 250.139, 39.957 250.509 C 37.398 251.072, 29.190 255.015, 16.448 261.805 C 15.102 262.522, 14 263.535, 14 264.055 C 14 264.575, 13.325 265, 12.500 265 C 11.675 265, 10.997 265.563, 10.994 266.250 C 10.990 266.938, 10.293 268.833, 9.443 270.462 C 7.565 274.063, 7.264 297.408, 9.067 299.580 C 9.675 300.313, 9.954 301.270, 9.688 301.706 C 9.033 302.780, 13.624 322.813, 15.713 328 C 16.046 328.825, 16.246 329.837, 16.159 330.250 C 15.919 331.384, 17.452 331.148, 18.749 329.851 C 19.614 328.986, 20.589 329.169, 22.699 330.589 C 27.229 333.640, 29.094 334.681, 37 338.571 C 56.387 348.109, 56.137 348.066, 63.361 343.096 C 65.836 341.393, 68.165 340, 68.536 340 C 68.908 340, 70.917 338.650, 73 337 C 75.083 335.350, 77.111 334, 77.506 334 C 78.755 334, 107 314.786, 107 313.936 C 107 313.490, 106.213 313.132, 105.250 313.141 C 103.183 313.161, 95.351 311.202, 92.500 309.953 C 91.400 309.471, 87.851 308.613, 84.613 308.047 C 81.375 307.480, 78.225 306.622, 77.613 306.139 C 77.001 305.656, 74.700 304.937, 72.500 304.541 C 70.300 304.145, 68.050 303.479, 67.500 303.060 C 66.950 302.642, 63.688 301.721, 60.250 301.013 C 56.813 300.306, 54 299.398, 54 298.996 C 54 298.594, 51.862 297.800, 49.250 297.231 C 42.578 295.778, 26.647 289.925, 25.765 288.602 C 25.361 287.996, 25.024 287.802, 25.015 288.171 C 25.007 288.540, 23.088 287.811, 20.750 286.550 C 8.879 280.151, 7.785 279, 10.608 275.881 C 12.210 274.111, 12.355 274.116, 15.084 276.060 C 20.165 279.678, 33.563 285.934, 38.835 287.151 C 41.676 287.807, 44 288.696, 44 289.126 C 44 289.557, 45.688 290.213, 47.750 290.585 C 49.813 290.957, 52.043 291.691, 52.706 292.216 C 53.370 292.742, 54.351 292.901, 54.887 292.570 C 55.423 292.238, 56.144 292.425, 56.490 292.984 C 56.835 293.543, 57.879 294.003, 58.809 294.006 C 59.739 294.010, 61.735 294.657, 63.245 295.444 C 64.754 296.232, 68.022 297.181, 70.507 297.553 C 72.992 297.926, 75.275 298.636, 75.581 299.132 C 75.888 299.627, 76.577 299.762, 77.113 299.430 C 77.649 299.099, 78.630 299.276, 79.294 299.824 C 79.957 300.373, 82.300 301.145, 84.500 301.541 C 86.700 301.937, 88.950 302.580, 89.500 302.971 C 90.050 303.362, 93.763 304.244, 97.750 304.931 C 101.737 305.619, 105 306.528, 105 306.952 C 105 309.212, 115.110 308.867, 118.771 306.482 C 126.568 301.402, 141.239 291.135, 143.708 289.030 C 144.372 288.463, 145.196 288, 145.539 288 C 145.883 288, 148.085 286.425, 150.435 284.500 C 152.784 282.575, 155.113 281, 155.610 281 C 156.107 281, 158.983 278.975, 162 276.500 C 165.017 274.025, 167.877 272, 168.354 272 C 168.832 272, 171.310 270.266, 173.861 268.146 C 179.902 263.128, 182.204 261.979, 184.838 262.668 C 186.823 263.187, 187 262.856, 187 258.617 C 187 256.034, 186.533 254, 185.941 254 C 185.359 254, 185.154 253.560, 185.486 253.023 C 188.315 248.445, 181.516 241.612, 174 241.482 C 172.625 241.458, 171.018 241.138, 170.429 240.771 C 169.840 240.403, 163.540 239.820, 156.429 239.474 C 149.318 239.127, 142.825 238.585, 142 238.269 C 139.761 237.410, 137.745 237.375, 135.377 238.155 C 134.161 238.555, 132.755 238.355, 132.085 237.685 C 131.194 236.794, 130.719 236.836, 130.083 237.865 C 129.612 238.627, 128.995 238.802, 128.664 238.266 C 127.889 237.011, 119 236.904, 119 238.149 C 119 238.686, 118.442 238.760, 117.750 238.316 C 116.324 237.401, 112 237.128, 112 237.954 M 181.182 270.500 C 179.548 271.875, 177.898 273, 177.515 273 C 177.131 273, 174.978 274.575, 172.729 276.500 C 170.480 278.425, 168.261 280, 167.799 280 C 167.336 280, 164.094 282.250, 160.595 285 C 157.095 287.750, 153.872 290, 153.431 290 C 152.990 290, 151.700 290.857, 150.564 291.904 C 148.483 293.824, 142.367 298.125, 129.500 306.718 L 122.500 311.392 127.500 312.217 C 130.250 312.670, 133.400 313.466, 134.500 313.986 C 136.421 314.893, 145.887 316.976, 149 317.176 C 149.825 317.229, 150.950 317.611, 151.500 318.025 C 153.568 319.581, 165 320.290, 165 318.863 C 165 317.497, 170.003 306.902, 171.073 306 C 172.016 305.205, 177 294.245, 177 292.966 C 177 292.330, 177.635 290.614, 178.411 289.154 C 179.807 286.529, 182.452 279.967, 182.504 279 C 182.519 278.725, 182.809 278.050, 183.150 277.500 C 184.001 276.125, 185.297 268, 184.665 268 C 184.383 268, 182.816 269.125, 181.182 270.500 M 393.287 314.740 C 396.469 314.939, 401.419 314.937, 404.287 314.736 C 407.154 314.535, 404.550 314.372, 398.500 314.374 C 392.450 314.376, 390.104 314.541, 393.287 314.740 M 110.500 320 C 107.750 322.188, 105.115 323.984, 104.644 323.989 C 104.173 323.995, 102.083 325.350, 100 327 C 97.917 328.650, 95.892 330, 95.500 330 C 95.108 330, 93.148 331.238, 91.144 332.750 C 89.140 334.262, 86.487 336.063, 85.250 336.750 C 80.536 339.369, 78.567 340.525, 77.551 341.273 C 76.973 341.698, 73.800 343.948, 70.500 346.272 L 64.500 350.499 68.250 351.426 C 70.313 351.936, 72 352.750, 72 353.235 C 72 353.721, 72.470 353.828, 73.044 353.473 C 73.618 353.118, 74.630 353.265, 75.294 353.798 C 75.957 354.332, 78.075 355.098, 80 355.500 C 81.925 355.902, 83.950 356.572, 84.500 356.989 C 85.050 357.405, 88.200 358.467, 91.500 359.349 C 94.800 360.230, 99.975 361.668, 103 362.543 C 106.025 363.419, 108.950 364.231, 109.500 364.346 C 110.050 364.462, 110.976 364.854, 111.557 365.218 C 114.792 367.243, 122.537 367.169, 124.413 365.097 C 125.456 363.943, 126.707 363, 127.192 363 C 127.677 363, 130.695 360.413, 133.899 357.250 C 137.103 354.087, 140.890 350.600, 142.316 349.500 C 143.741 348.400, 144.928 346.938, 144.954 346.250 C 144.979 345.563, 145.471 345, 146.048 345 C 147.267 345, 152 340.113, 152 338.854 C 152 338.384, 153.300 338, 154.889 338 C 157.436 338, 157.860 337.556, 158.478 334.250 C 158.864 332.188, 159.627 329.957, 160.176 329.294 C 161.487 327.706, 160.361 326, 158 326 C 156.965 326, 155.865 325.590, 155.555 325.089 C 155.245 324.587, 153.857 324.302, 152.471 324.454 C 151.085 324.606, 149.730 324.372, 149.460 323.935 C 149.190 323.498, 146.388 322.828, 143.234 322.447 C 140.080 322.065, 137.050 321.410, 136.500 320.991 C 135.950 320.572, 132.239 319.687, 128.254 319.025 C 124.268 318.362, 120.754 317.411, 120.445 316.910 C 119.241 314.963, 115.284 316.193, 110.500 320 M 20.591 342.750 C 21.967 346.462, 23.747 350.918, 24.547 352.651 C 25.346 354.384, 26.014 356.409, 26.032 357.151 C 26.131 361.345, 28.681 362.370, 33.445 360.131 C 35.938 358.959, 38.396 358, 38.906 358 C 39.416 358, 39.983 357.663, 40.167 357.250 C 40.350 356.837, 42.607 355.401, 45.183 354.058 L 49.866 351.615 46.183 349.941 C 34.743 344.741, 26.133 340.344, 23.406 338.309 C 18.407 334.579, 17.875 335.420, 20.591 342.750 M 413 338.913 C 409.975 339.236, 415.598 339.500, 425.496 339.500 C 435.508 339.500, 441.497 339.200, 438.996 338.824 C 433.731 338.033, 420.836 338.077, 413 338.913 M 516.157 411.692 C 517.455 420.344, 517.965 421.334, 517.346 414 C 517.044 410.425, 516.457 407.137, 516.041 406.692 C 515.625 406.248, 515.677 408.498, 516.157 411.692 M 52.500 412.684 C 53.842 413.779, 55.444 416.447, 58.595 422.836 C 60.043 425.772, 61.580 427.797, 62.012 427.336 C 63.132 426.144, 64.378 413.886, 63.352 414.156 C 62.582 414.359, 58.943 413.696, 53.500 412.360 C 52.382 412.086, 51.941 412.229, 52.500 412.684 M 327.343 424.500 C 327.346 428.900, 327.522 430.576, 327.733 428.224 C 327.945 425.872, 327.942 422.272, 327.727 420.224 C 327.512 418.176, 327.339 420.100, 327.343 424.500 M 742.500 444.904 C 742.500 449.866, 742.806 453.155, 743.180 452.213 C 744.033 450.062, 744.015 441.260, 743.150 438.191 C 742.793 436.921, 742.500 439.942, 742.500 444.904 M 609.208 445 C 609.175 446.925, 609.509 450.525, 609.949 453 C 611.031 459.079, 611.116 453.369, 610.046 446.500 C 609.409 442.411, 609.256 442.138, 609.208 445 M 60.360 476 C 60.360 481.225, 60.529 483.363, 60.735 480.750 C 60.941 478.137, 60.941 473.863, 60.735 471.250 C 60.529 468.637, 60.360 470.775, 60.360 476 M 574 469 C 574 469.550, 573.199 470, 572.221 470 C 571.242 470, 569.793 470.900, 569 472 C 568.207 473.100, 566.758 474, 565.779 474 C 564.801 474, 564 474.687, 564 475.526 C 564 476.366, 561.975 479.078, 559.500 481.553 C 557.025 484.028, 555 486.479, 555 487 C 555 487.521, 552.975 489.972, 550.500 492.447 C 548.025 494.922, 546 497.414, 546 497.985 C 546 500.358, 525.043 520, 522.512 520 C 521.130 520, 520 520.358, 520 520.796 C 520 521.233, 518.326 521.704, 516.281 521.842 C 514.235 521.979, 512.297 522.519, 511.975 523.041 C 511.652 523.563, 510.176 524.091, 508.694 524.213 C 507.212 524.336, 506 524.788, 506 525.218 C 506 525.648, 505.281 526, 504.401 526 C 503.522 526, 501.541 527.350, 500 529 C 498.459 530.650, 496.508 532, 495.666 532 C 494.824 532, 493.845 532.914, 493.490 534.032 C 493.135 535.150, 491.755 537.154, 490.422 538.487 C 488.770 540.139, 488 542.036, 488 544.455 C 488 546.405, 487.550 548, 487 548 C 486.450 548, 486 549.773, 486 551.941 C 486 554.109, 486.450 556.160, 487 556.500 C 487.550 556.840, 488 558.216, 488 559.559 C 488 560.902, 488.450 562, 489 562 C 489.550 562, 490 562.683, 490 563.519 C 490 565.496, 502.504 578, 504.481 578 C 505.317 578, 506 578.450, 506 579 C 506 579.550, 507.350 580, 509 580 C 510.650 580, 512 580.450, 512 581 C 512 581.550, 514.250 582, 517 582 C 519.750 582, 522 582.450, 522 583 C 522 583.571, 525 584, 529 584 C 533 584, 536 583.571, 536 583 C 536 582.450, 538.250 582, 541 582 C 543.750 582, 546 582.450, 546 583 C 546 583.571, 549 584, 553 584 C 557 584, 560 583.571, 560 583 C 560 582.407, 563.667 582, 569 582 C 574.333 582, 578 581.593, 578 581 C 578 580.450, 579.800 580, 582 580 C 584.200 580, 586 579.550, 586 579 C 586 578.450, 586.900 578, 588 578 C 589.100 578, 590 577.550, 590 577 C 590 576.450, 590.707 576, 591.571 576 C 593.592 576, 596 573.592, 596 571.571 C 596 570.707, 596.450 570, 597 570 C 597.550 570, 598 568.650, 598 567 C 598 565.350, 597.550 564, 597 564 C 596.450 564, 596.036 562.987, 596.079 561.750 C 596.122 560.513, 596.385 560.063, 596.662 560.750 C 596.959 561.485, 598.986 562, 601.583 562 C 604.013 562, 606 562.450, 606 563 C 606 563.550, 607.350 564, 609 564 C 610.650 564, 612 564.450, 612 565 C 612 565.550, 613.800 566, 616 566 C 618.200 566, 620 566.450, 620 567 C 620 567.550, 621.800 568, 624 568 C 626.200 568, 628 568.405, 628 568.899 C 628 569.745, 630.369 570.151, 642.500 571.383 C 656.814 572.837, 663.209 573.147, 662.729 572.366 C 662.436 571.890, 665.415 571.492, 669.348 571.482 C 685.195 571.442, 696.342 561.129, 694.416 548.290 C 692.571 535.984, 678.815 528.620, 648.279 523.592 C 647.607 523.482, 646.745 523.078, 646.362 522.696 C 645.980 522.313, 640.792 522, 634.833 522 C 628.278 522, 624 521.605, 624 521 C 624 520.367, 616.667 520, 604 520 L 584 520 584 508 C 584 500.667, 583.611 496, 583 496 C 582.407 496, 582 492.314, 582 486.941 C 582 481.156, 581.639 478.105, 581 478.500 C 580.415 478.861, 580 477.829, 580 476.014 C 580 474.051, 579.097 472.006, 577.545 470.455 C 574.892 467.801, 574 467.435, 574 469 M 569.106 478.523 C 566.848 480.563, 565 482.676, 565 483.217 C 565 483.758, 562.075 487.469, 558.500 491.463 C 554.925 495.458, 551.996 499.125, 551.990 499.613 C 551.985 500.101, 550.189 502.075, 548 504 C 545.811 505.925, 544.015 507.961, 544.010 508.523 C 543.992 510.332, 528.522 525, 526.632 525 C 510.943 525, 492.619 539.237, 491.431 552.349 C 490.726 560.137, 506.822 576, 515.430 576 C 516.779 576, 518.160 576.450, 518.500 577 C 519.267 578.242, 566.648 578.378, 567.413 577.141 C 567.705 576.669, 570.949 575.974, 574.622 575.598 C 581.608 574.882, 589.646 571.906, 591.711 569.270 C 593.050 567.561, 591.780 564, 589.832 564 C 589.228 564, 588.007 563.181, 587.117 562.181 C 585.685 560.569, 583.721 559.437, 580.500 558.365 C 579.950 558.182, 577.025 557.535, 574 556.926 C 565.669 555.250, 565.263 555.077, 567.028 553.962 C 567.838 553.450, 568.012 553.024, 567.417 553.015 C 566.821 553.007, 566.063 553.270, 565.733 553.600 C 565.403 553.931, 558.578 554.135, 550.566 554.054 C 540.039 553.949, 536 554.232, 536 555.076 C 536 555.941, 535.650 555.955, 534.658 555.131 C 533.920 554.519, 532.985 554.351, 532.580 554.759 C 530.987 556.362, 512.580 557.764, 511.086 556.395 C 509.105 554.582, 511.359 552, 514.922 552 C 516.395 552, 518.162 551.438, 518.850 550.750 C 520.527 549.072, 574.707 548.934, 575.786 550.605 C 576.179 551.212, 580.325 552.273, 585 552.962 C 589.675 553.651, 594.400 554.600, 595.500 555.070 C 598.606 556.400, 609 558.873, 609 558.283 C 609 557.992, 609.563 558.193, 610.250 558.728 C 610.938 559.263, 614.425 560.258, 618 560.939 C 621.575 561.620, 625.400 562.553, 626.500 563.011 C 629.068 564.081, 633.686 565.152, 637.500 565.561 C 639.150 565.738, 643.200 566.318, 646.500 566.851 C 654.044 568.070, 673.855 567.545, 675.312 566.088 C 675.910 565.490, 677.098 564.999, 677.950 564.998 C 688.394 564.987, 694.189 551.052, 687.067 543.075 C 685.414 541.224, 684.296 539.330, 684.583 538.866 C 684.869 538.402, 684.463 538.269, 683.681 538.569 C 682.898 538.869, 679.770 537.769, 676.729 536.124 C 673.688 534.479, 670.941 533.392, 670.624 533.709 C 670.308 534.026, 669.475 533.830, 668.774 533.273 C 668.073 532.716, 665.700 531.950, 663.500 531.570 C 658.167 530.649, 652.672 528.746, 651.765 527.505 C 651.292 526.858, 651.025 526.901, 651.015 527.627 C 651 528.726, 643.452 528.518, 640 527.323 C 637.965 526.619, 626.533 526.094, 601.500 525.556 C 589.950 525.308, 580.163 525.081, 579.750 525.052 C 579.337 525.024, 579 520.350, 579 514.667 C 579 508.983, 578.691 504.024, 578.313 503.646 C 577.201 502.535, 577.242 499, 578.367 499 C 578.985 499, 578.918 498.518, 578.200 497.800 C 577.540 497.140, 576.980 494.102, 576.956 491.050 C 576.844 476.724, 574.767 473.409, 569.106 478.523 M 732.068 484.260 C 728.531 488.242, 727.333 489.925, 729.406 488 C 732.939 484.720, 739.572 476.988, 738.834 477.010 C 738.650 477.015, 735.606 480.278, 732.068 484.260 M 394.500 496.967 C 397.110 497.962, 408.587 498.896, 406.839 497.970 C 406.103 497.580, 402.575 497.023, 399 496.732 C 395.425 496.442, 393.400 496.547, 394.500 496.967 M 436 497 L 427.500 497.627 435.500 497.798 C 439.900 497.892, 444.175 497.533, 445 497 C 445.825 496.467, 446.050 496.108, 445.500 496.202 C 444.950 496.296, 440.675 496.655, 436 497 M 412.776 498.733 C 415.128 498.945, 418.728 498.942, 420.776 498.727 C 422.824 498.512, 420.900 498.339, 416.500 498.343 C 412.100 498.346, 410.424 498.522, 412.776 498.733 M 80.703 651 C 81.009 655.125, 81.427 658.688, 81.630 658.917 C 82.327 659.702, 81.885 651.502, 81.015 647.500 C 80.370 644.535, 80.289 645.440, 80.703 651 M 280.279 680.925 C 279.149 682.734, 279.478 682.886, 285.789 683.472 C 289.480 683.814, 293.248 684.503, 294.163 685.001 C 295.077 685.500, 298.227 686.214, 301.163 686.587 C 304.098 686.961, 306.950 687.616, 307.500 688.044 C 308.050 688.471, 310.300 689.145, 312.500 689.541 C 314.700 689.937, 316.950 690.614, 317.500 691.045 C 318.050 691.477, 318.847 691.842, 319.271 691.858 C 321.106 691.924, 327 694.473, 327 695.201 C 327 695.640, 327.470 696, 328.044 696 C 328.618 696, 330.280 697.106, 331.737 698.457 C 335.439 701.889, 332.434 703.044, 327.451 700.104 C 323.248 697.624, 320.711 697.439, 319.010 699.488 C 318.012 700.690, 318.073 701.091, 319.326 701.572 C 320.180 701.899, 321.173 703.511, 321.534 705.154 C 322.600 710.008, 317.870 712.103, 311.707 709.508 C 310.721 709.093, 309.646 709.020, 309.320 709.347 C 308.993 709.674, 307.499 709.068, 306 708 C 304.501 706.932, 302.998 706.335, 302.661 706.672 C 302.324 707.009, 301.340 706.697, 300.474 705.978 C 297.444 703.464, 295.049 707.359, 297.815 710.304 C 299.027 711.593, 299.714 712.952, 299.342 713.324 C 298.350 714.316, 280.211 714.150, 279.588 713.143 C 279.297 712.671, 276.863 712.025, 274.179 711.708 C 269.195 711.117, 258.140 706.341, 254.836 703.351 C 253.826 702.438, 253 702.011, 253 702.403 C 253 703.888, 242.721 691.375, 241.785 688.750 C 241.246 687.237, 240.211 686, 239.486 686 C 238.760 686, 237.990 685.470, 237.774 684.823 C 237.559 684.176, 236.863 683.967, 236.228 684.359 C 234.868 685.199, 237.035 689.180, 241.612 694.249 C 243.226 696.037, 245.657 699.075, 247.015 701 C 256.639 714.646, 296.458 724.562, 304.039 715.201 C 305.811 713.011, 306.179 712.955, 311.700 714.031 C 320.590 715.762, 326.388 713.753, 326.805 708.797 C 327.102 705.277, 327.198 705.196, 330.120 706.035 C 334.947 707.419, 338 705.473, 338 701.014 C 338 697.460, 334.875 693, 332.386 693 C 331.843 693, 330.890 692.490, 330.266 691.866 C 328.882 690.482, 315.431 685, 313.419 685 C 312.624 685, 311.191 684.572, 310.236 684.049 C 303.689 680.465, 281.980 678.200, 280.279 680.925 M 140.030 698.750 C 140.014 699.987, 139.550 701, 139 701 C 138.450 701, 138 701.567, 138 702.260 C 138 704.271, 133.102 709, 131.019 709 C 129.973 709, 128.858 709.421, 128.540 709.936 C 127.186 712.126, 134.571 708.817, 136.536 706.353 C 138.693 703.647, 146.065 703.342, 149.399 705.821 C 150.005 706.271, 152.525 707.271, 155 708.042 C 157.475 708.813, 162.775 711.369, 166.779 713.722 C 170.782 716.075, 174.440 718, 174.906 718 C 175.373 718, 176.281 718.634, 176.924 719.408 C 177.566 720.182, 179.646 721.553, 181.546 722.455 C 183.446 723.356, 185 724.523, 185 725.047 C 185 725.571, 185.495 726, 186.099 726 C 187.467 726, 197.347 735.987, 196.659 736.674 C 195.638 737.695, 188.972 738.763, 188.489 737.983 C 188.214 737.538, 186.192 736.870, 183.995 736.499 C 181.798 736.128, 180 735.414, 180 734.912 C 180 733.275, 173.966 733.954, 171.967 735.816 C 170.394 737.282, 170.050 738.832, 170.188 743.837 C 170.435 752.778, 164.569 753.781, 155 746.435 C 150.117 742.686, 140.240 743.344, 142.659 747.257 C 146.261 753.086, 141.316 757.084, 135.500 753.045 C 134.950 752.663, 132.475 751.792, 130 751.111 C 122.237 748.973, 115.472 745.312, 110.852 740.750 C 109.321 739.237, 107.602 738, 107.034 738 C 106.465 738, 105.982 737.438, 105.959 736.750 C 105.937 736.063, 104.587 733.942, 102.959 732.038 C 101.332 730.134, 100 727.996, 100 727.288 C 100 726.579, 99.612 726, 99.138 726 C 98.127 726, 96 716.116, 96 711.417 C 96 709.629, 95.438 707.966, 94.750 707.720 C 94.063 707.475, 93.827 706.923, 94.226 706.494 C 94.625 706.066, 95.750 706.312, 96.726 707.041 C 97.702 707.770, 97.375 707.225, 96 705.830 C 88.792 698.519, 91.786 722.340, 99.637 734.770 C 107.188 746.724, 128.877 759, 142.445 759 C 147.562 759, 148.372 758.128, 148.165 752.840 C 147.991 748.405, 149.539 747.858, 153.846 750.834 C 166.697 759.715, 175.716 757.162, 175.267 744.768 C 175.034 738.342, 176.602 736.441, 179.787 739.289 C 185.654 744.537, 200.079 742.853, 200.801 736.836 C 201.792 728.565, 150.002 695.172, 142.947 699.533 C 142.494 699.813, 141.659 699.245, 141.092 698.271 C 140.163 696.676, 140.058 696.723, 140.030 698.750 M 419.647 709.719 C 419.303 711.799, 419.077 715.525, 419.144 718 C 419.231 721.209, 419.506 720.221, 420.103 714.553 C 420.984 706.194, 420.709 703.289, 419.647 709.719" stroke="none" fill="#aa7537" fill-rule="evenodd"/><path d="M 589 311 C 584.875 313.145, 579.925 315.430, 578 316.077 C 576.075 316.724, 572.021 318.926, 568.992 320.969 C 565.962 323.013, 561.687 325.268, 559.492 325.981 C 557.296 326.693, 552.421 328.816, 548.658 330.697 C 540.949 334.551, 541.149 334.559, 526.500 329.820 C 521.234 328.116, 513.558 326.548, 508 326.040 C 502.775 325.562, 494.450 324.052, 489.500 322.684 C 484.550 321.316, 476 319.670, 470.500 319.026 C 465 318.383, 458.160 317.411, 455.299 316.867 C 452.439 316.324, 445.689 315.981, 440.299 316.106 C 425.556 316.448, 391.194 315.087, 385.382 313.931 C 382.567 313.371, 378.967 313.198, 377.382 313.547 C 375.797 313.896, 367.525 314.309, 359 314.466 C 343.720 314.747, 323.625 316.698, 307 319.516 C 302.325 320.308, 295.350 321.397, 291.500 321.937 C 287.650 322.476, 280.450 323.856, 275.500 325.004 C 270.550 326.152, 263.125 327.715, 259 328.478 C 254.875 329.241, 250.150 330.319, 248.500 330.873 C 246.850 331.428, 241.225 333.007, 236 334.382 C 221.349 338.240, 211.907 341.120, 207.261 343.149 C 204.929 344.167, 202.350 345, 201.529 345 C 200.226 345, 191.481 348.106, 166 357.619 C 162.425 358.954, 157.588 360.936, 155.250 362.023 C 152.912 363.110, 148.863 364.949, 146.250 366.109 C 139.037 369.311, 108.569 384.318, 108 384.949 C 107.725 385.254, 106.157 386.177, 104.517 387.002 C 99.189 389.677, 80.684 400.508, 73.337 405.251 C 65.426 410.358, 65.430 410.351, 64.461 421 C 64.085 425.125, 63.268 429.129, 62.645 429.897 C 60.972 431.959, 61.051 518.027, 62.730 523.534 C 63.863 527.246, 64.996 538.246, 66.488 560 C 67.246 571.054, 67.871 575.407, 69.577 581.500 C 71.901 589.804, 73.148 596.932, 75.437 615 C 76.238 621.325, 77.858 631, 79.037 636.500 C 80.217 642, 81.559 650.325, 82.020 655 C 83.075 665.697, 83.214 666.441, 86.413 678.459 C 91.390 697.157, 94.016 704.420, 96.447 706.210 C 100.810 709.421, 125.929 712.471, 128.320 710.080 C 128.914 709.486, 130.192 709, 131.160 709 C 133.133 709, 138 704.204, 138 702.260 C 138 701.567, 138.410 701, 138.912 701 C 139.414 701, 140.126 699.213, 140.495 697.029 C 140.864 694.846, 142.029 691.962, 143.083 690.622 C 144.137 689.281, 145 687.935, 145 687.630 C 145 687.326, 146.616 683.572, 148.592 679.288 C 158.973 656.780, 160.048 654.985, 162.142 656.667 C 163.321 657.614, 167.441 659.041, 180.500 663.027 C 182.150 663.531, 186.425 664.370, 190 664.892 C 193.575 665.414, 199.650 666.303, 203.500 666.868 C 207.350 667.433, 212.975 668.150, 216 668.462 C 229.906 669.895, 229.852 669.869, 232.816 676.572 C 237.126 686.323, 236.793 686.170, 252.732 685.697 C 272.891 685.097, 281 683.107, 281 678.757 C 281 676.931, 281.494 676.805, 286.750 677.285 C 289.912 677.573, 301.275 678.534, 312 679.420 C 322.725 680.305, 332.040 681.225, 332.699 681.464 C 333.359 681.703, 338.178 681.978, 343.407 682.076 C 355.313 682.298, 357.001 683.258, 356.997 689.807 C 356.993 696.905, 360.916 719.900, 363.001 725 C 364.013 727.475, 365.566 732.650, 366.453 736.500 C 373.303 766.227, 384.294 778, 405.196 778 C 408.887 778, 412.940 777.602, 414.203 777.115 C 415.466 776.628, 419.200 775.448, 422.500 774.493 C 441.191 769.085, 441.662 749.686, 423.305 741.282 C 416.536 738.183, 416.942 739.942, 418.619 720.977 C 420.744 696.948, 420.784 696.863, 430.570 695.373 C 434.931 694.709, 443.225 693.229, 449 692.085 C 454.775 690.940, 463.325 689.330, 468 688.507 C 484.955 685.523, 495.709 682.904, 503.526 679.855 C 520.761 673.133, 520.348 672.665, 520.433 699.036 C 520.529 728.519, 520.988 729.091, 544.770 729.365 C 576.737 729.733, 584.001 723.568, 574.365 704.245 C 571.550 698.600, 571.504 698.235, 571.714 683.212 C 572.010 661.971, 571.569 662.622, 589.500 656.969 C 595 655.235, 601.075 652.860, 603 651.690 C 608.813 648.157, 617.954 640.957, 618.889 639.174 C 621.575 634.052, 628 612.451, 628 608.541 C 628 606.066, 628.668 602.344, 629.483 600.270 C 631.820 594.331, 636 579.203, 636 576.685 C 636 575.428, 636.559 573.841, 637.242 573.158 C 638.230 572.170, 638.180 571.725, 636.992 570.974 C 634.246 569.238, 633.260 569.971, 632.588 574.250 C 632.221 576.587, 631.516 579.850, 631.021 581.500 C 630.526 583.150, 628.921 589.450, 627.455 595.500 C 621.485 620.142, 620.206 624.491, 616.638 632.292 C 615.187 635.464, 614 638.266, 614 638.518 C 614 642.560, 592.615 652.569, 575.794 656.400 C 574.306 656.739, 571.831 657.526, 570.294 658.150 C 568.757 658.774, 560.975 661.050, 553 663.207 C 529.169 669.652, 508.756 675.036, 504.500 675.999 C 502.300 676.497, 496.450 677.849, 491.500 679.005 C 486.550 680.161, 481.375 681.335, 480 681.615 C 476.646 682.297, 461.272 685.574, 452 687.583 C 425.662 693.291, 422.341 692.575, 428.046 682.418 C 430.531 677.993, 430.524 676, 428.023 676 C 424.258 676, 419.341 687.929, 417.100 702.500 C 416.424 706.900, 415.444 712.300, 414.923 714.500 C 412.345 725.387, 413.312 743.469, 416.500 744 C 428.317 745.970, 436.472 759.502, 430.645 767.471 C 428.366 770.587, 426.002 768.716, 425.985 763.781 C 425.954 755.061, 421.949 748.138, 418.561 750.949 C 417.140 752.129, 417.123 752.538, 418.410 754.502 C 420.896 758.297, 422.606 768.565, 421.062 770.425 C 417.587 774.612, 414.514 772.453, 413.341 765.001 C 412.134 757.340, 408.361 751, 405.008 751 C 401.780 751, 401.722 752.920, 404.844 756.475 C 407.924 759.983, 410.003 768.943, 408.591 772.624 C 407.112 776.479, 387.590 771.292, 382.803 765.773 C 380.267 762.849, 378.988 759.867, 371.959 740.500 C 369.100 732.621, 365.147 717.451, 363.621 708.500 C 356.464 666.509, 357.489 654.160, 368.143 654.032 C 370.286 654.006, 372 652.448, 372 650.527 C 372 649.525, 366.860 649.202, 363.939 650.019 C 360.481 650.987, 356 656.119, 356 659.112 C 356 659.930, 355.465 661.135, 354.812 661.788 C 354.059 662.541, 353.687 665.933, 353.796 671.050 C 353.950 678.275, 353.785 679.074, 352.234 678.642 C 349.754 677.953, 332.955 676.286, 315.500 674.998 C 307.250 674.389, 297.125 673.490, 293 673 C 288.875 672.510, 282.125 671.818, 278 671.463 C 269.016 670.688, 240.675 667.490, 229.500 665.990 C 225.100 665.399, 218.350 664.494, 214.500 663.978 C 190.599 660.776, 171.091 656.149, 162.617 651.672 C 157.528 648.984, 153.418 655.280, 140.644 685.325 C 131.670 706.434, 129.949 707.599, 111.555 705.029 C 99.965 703.410, 98.533 702.687, 96.946 697.647 C 96.228 695.366, 95.352 693.050, 95 692.500 C 93.865 690.726, 91.722 682.858, 87.918 666.500 C 84.691 652.621, 76.778 611.090, 75.629 602 C 75.386 600.075, 74.249 591.975, 73.102 584 C 71.956 576.025, 70.332 562.300, 69.493 553.500 C 68.654 544.700, 67.443 533.225, 66.803 528 C 65.242 515.275, 65.200 446.280, 66.749 439.500 C 67.377 436.750, 68.395 430.225, 69.012 425 C 70.495 412.445, 70.384 412.710, 75.261 410.003 C 77.592 408.708, 79.725 407.370, 80 407.030 C 80.747 406.105, 99.321 395.194, 101.561 394.364 C 102.628 393.969, 103.725 393.388, 104 393.073 C 105.055 391.864, 131.388 378.332, 142.500 373.289 C 157.891 366.303, 160.952 365.002, 172.500 360.541 C 179.100 357.991, 185.983 355.249, 187.795 354.447 C 195.151 351.193, 230.812 340, 233.822 340 C 234.837 340, 235.992 339.674, 236.390 339.277 C 237.095 338.572, 247.460 335.734, 255.500 334.045 C 257.700 333.583, 263.100 332.454, 267.500 331.536 C 271.900 330.618, 276.850 329.478, 278.500 329.002 C 280.150 328.526, 285.100 327.617, 289.500 326.983 C 293.900 326.348, 299.075 325.431, 301 324.944 C 302.925 324.458, 309.450 323.578, 315.500 322.990 C 321.550 322.401, 328.750 321.504, 331.500 320.996 C 352.365 317.146, 428.213 317.149, 453 321.001 C 456.575 321.556, 464.675 322.675, 471 323.486 C 477.325 324.297, 487.225 325.886, 493 327.015 C 498.775 328.145, 505.525 329.465, 508 329.948 C 510.475 330.431, 515.875 331.800, 520 332.990 C 541.332 339.142, 546.782 339.543, 549.965 335.191 C 550.259 334.788, 551.625 333.909, 553 333.237 C 554.375 332.565, 556.175 331.570, 557 331.026 C 564.477 326.101, 589.049 313.523, 593.250 312.472 C 595.727 311.851, 597.356 313.282, 595.181 314.167 C 593.335 314.917, 586 327.071, 586 329.378 C 586 332.801, 588.267 333.261, 596.523 331.513 C 612.564 328.115, 617.702 329.810, 606.750 334.888 C 593.740 340.919, 592.723 341.479, 591.628 343.222 C 589.771 346.177, 592.328 347.267, 603.065 348.099 C 616.616 349.148, 617.793 350.244, 607.386 352.123 C 595.661 354.241, 594.701 354.527, 593.631 356.222 C 591.393 359.771, 594.169 360.490, 610.800 360.668 C 638.055 360.960, 637.980 360.931, 640.937 372.750 C 641.522 375.087, 642.494 378.886, 643.098 381.192 C 644.189 385.359, 642.877 388, 639.717 388 C 639.221 388, 637.784 388.788, 636.523 389.750 C 635.263 390.712, 633.205 392.175, 631.951 393 C 592.681 418.827, 597.713 481.598, 640.741 502.660 C 645.088 504.788, 645.896 505.590, 645.479 507.363 C 643.340 516.455, 643.377 521.630, 645.589 522.674 C 647.719 523.679, 647.822 523.482, 648.502 517.108 C 649.337 509.267, 650.479 506.704, 652.811 507.430 C 682.405 516.642, 708.964 508.999, 731.443 484.801 C 742.578 472.817, 744.741 467.444, 747.513 444.897 C 748.137 439.819, 745.807 426.775, 743.478 422.310 C 742.672 420.765, 742.005 419.050, 741.996 418.500 C 741.988 417.950, 740.410 415.524, 738.490 413.109 C 736.571 410.694, 735 408.198, 735 407.561 C 735 406.126, 728.720 399.524, 722.878 394.815 C 704.731 380.190, 677.341 375.534, 653.007 382.937 C 647.587 384.586, 647.305 384.381, 646.553 378.250 C 644.347 360.258, 641.003 356.768, 625.816 356.605 C 615.056 356.490, 614.878 356.402, 618.500 353 C 623.909 347.918, 620.570 344.782, 609.568 344.610 C 603.728 344.519, 602.470 344.204, 602.193 342.761 C 601.846 340.961, 602.512 340.569, 611.297 337.415 C 624.456 332.690, 616.371 322.854, 602 326.105 C 591.921 328.385, 592 328.385, 592 326.173 C 592 325.043, 592.443 323.844, 592.985 323.509 C 594.344 322.670, 602 309.661, 602 308.192 C 602 305.921, 596.466 307.117, 589 311 M 401 334.998 C 399.075 335.434, 394.188 336.294, 390.140 336.911 C 367.691 340.329, 346.810 353.193, 337.009 369.641 C 335.089 372.864, 333.177 375.650, 332.759 375.833 C 332.342 376.017, 332 376.826, 332 377.632 C 332 378.437, 331.144 380.868, 330.098 383.033 C 327.971 387.435, 324.731 399.895, 322.954 410.500 C 321.143 421.313, 322.750 441.788, 325.936 448.500 C 326.459 449.600, 328.076 453.200, 329.530 456.500 C 334.373 467.492, 347.247 482.161, 357 487.801 C 359.475 489.233, 361.725 490.676, 362 491.009 C 363.136 492.383, 378.088 498.133, 386 500.238 C 475.633 524.087, 548.574 456.961, 512.852 383.500 C 509.454 376.512, 506.410 371.287, 504.706 369.515 C 504.043 368.825, 501.475 365.867, 499 362.942 C 491.597 354.191, 470.420 340, 464.763 340 C 464.013 340, 462.972 339.622, 462.450 339.161 C 461.927 338.700, 458.800 337.751, 455.500 337.053 C 452.200 336.355, 448.195 335.383, 446.601 334.892 C 443.072 333.806, 405.888 333.893, 401 334.998 M 413 338.635 C 356.773 342.723, 331.238 366.535, 327.428 418.435 C 326.728 427.969, 328.327 443.466, 330.125 444.577 C 330.606 444.875, 330.996 445.879, 330.992 446.809 C 330.924 460.626, 356.143 485.012, 378.500 492.748 C 401.398 500.671, 449.311 500.501, 464.761 492.441 C 466.267 491.655, 467.968 491.010, 468.539 491.006 C 472.155 490.985, 491.683 478.314, 498.548 471.535 C 504.655 465.504, 512.088 453.295, 515.757 443.265 C 517.948 437.276, 518.332 408.931, 516.250 406.850 C 515.563 406.162, 515 404.619, 515 403.419 C 515 367.312, 464.009 334.926, 413 338.635 M 373 369.592 C 358.289 374.988, 348.906 385.997, 344.488 403.045 C 342.874 409.276, 342.461 423.549, 343.871 424.420 C 344.350 424.716, 345.019 426.345, 345.358 428.041 C 348.373 443.115, 368.431 456.042, 388.688 455.967 C 435.034 455.796, 451.384 393.089, 410 374.229 C 400.841 370.055, 399.176 369.704, 387 369.377 C 380.125 369.193, 373.825 369.289, 373 369.592 M 663 384.637 C 580.123 400.290, 600.662 514.850, 684.750 505.953 C 706.515 503.650, 737.935 482.199, 738.006 469.593 C 738.010 468.992, 738.664 467.251, 739.460 465.724 C 753.898 438.046, 734 399.759, 698.500 386.911 C 692.587 384.770, 669.965 383.322, 663 384.637 M 372.775 386.559 C 366.890 389.753, 366.124 397.399, 371.223 402.056 C 377.812 408.075, 387.891 403.739, 387.968 394.854 C 388.031 387.680, 379.396 382.966, 372.775 386.559 M 692.789 414.875 C 675.896 420.703, 667.666 441.919, 675.853 458.538 C 689.744 486.740, 731 476.205, 731 444.456 C 731 422.948, 712.008 408.245, 692.789 414.875 M 701.235 431.037 C 695.222 433.452, 697.112 444, 703.557 444 C 709.826 444, 712.376 436.014, 707.365 432.073 C 704.432 429.765, 704.409 429.761, 701.235 431.037 M 556 667.563 C 551.875 668.903, 547.514 669.999, 546.309 670 C 545.104 670, 543.840 670.450, 543.500 671 C 543.160 671.550, 541.805 672, 540.488 672 C 539.171 672, 537.060 672.403, 535.797 672.896 C 534.534 673.389, 531.587 674.361, 529.250 675.056 L 525 676.320 524.868 687.410 C 524.438 723.558, 524.302 723.091, 535.748 724.833 C 548.857 726.829, 548 727.341, 548 717.500 C 548 703.784, 552.653 704.676, 553.215 718.500 L 553.500 725.500 558.216 725.803 C 566.545 726.339, 569.132 721.135, 564.764 712.633 C 564.070 711.284, 564.233 710.338, 565.352 709.219 C 567.449 707.123, 570 709.202, 570 713.008 C 570 716.355, 572.364 722.302, 573.317 721.350 C 575.681 718.986, 571.915 706.564, 567.688 702.782 C 566.243 701.490, 565.942 700.374, 566.473 698.282 C 566.861 696.752, 567.294 688.638, 567.435 680.250 C 567.735 662.510, 568.600 663.470, 556 667.563 M 237 673.435 C 237 682.008, 246.223 683.547, 271.419 679.179 C 278.514 677.950, 276.654 676.328, 267.287 675.574 C 262.454 675.186, 254 674.231, 248.500 673.452 C 236.199 671.711, 237 671.712, 237 673.435" stroke="none" fill="#000100" fill-rule="evenodd"/><path d="M 592 312.704 C 587.249 314.433, 562.604 327.334, 557 331.026 C 556.175 331.570, 554.375 332.565, 553 333.237 C 551.625 333.909, 550.259 334.788, 549.965 335.191 C 546.782 339.543, 541.332 339.142, 520 332.990 C 515.875 331.800, 510.475 330.431, 508 329.948 C 505.525 329.465, 498.775 328.145, 493 327.015 C 487.225 325.886, 477.325 324.297, 471 323.486 C 464.675 322.675, 456.575 321.556, 453 321.001 C 428.213 317.149, 352.365 317.146, 331.500 320.996 C 328.750 321.504, 321.550 322.401, 315.500 322.990 C 309.450 323.578, 302.925 324.458, 301 324.944 C 299.075 325.431, 293.900 326.348, 289.500 326.983 C 285.100 327.617, 280.150 328.526, 278.500 329.002 C 276.850 329.478, 271.900 330.618, 267.500 331.536 C 263.100 332.454, 257.700 333.583, 255.500 334.045 C 247.460 335.734, 237.095 338.572, 236.390 339.277 C 235.992 339.674, 234.837 340, 233.822 340 C 230.812 340, 195.151 351.193, 187.795 354.447 C 185.983 355.249, 179.100 357.991, 172.500 360.541 C 160.952 365.002, 157.891 366.303, 142.500 373.289 C 131.388 378.332, 105.055 391.864, 104 393.073 C 103.725 393.388, 102.628 393.969, 101.561 394.364 C 99.321 395.194, 80.747 406.105, 80 407.030 C 79.725 407.370, 77.592 408.708, 75.261 410.003 C 70.384 412.710, 70.495 412.445, 69.012 425 C 68.395 430.225, 67.377 436.750, 66.749 439.500 C 65.200 446.280, 65.242 515.275, 66.803 528 C 67.443 533.225, 68.654 544.700, 69.493 553.500 C 70.332 562.300, 71.956 576.025, 73.102 584 C 74.249 591.975, 75.386 600.075, 75.629 602 C 76.778 611.090, 84.691 652.621, 87.918 666.500 C 91.722 682.858, 93.865 690.726, 95 692.500 C 95.352 693.050, 96.228 695.366, 96.946 697.647 C 98.533 702.687, 99.965 703.410, 111.555 705.029 C 129.949 707.599, 131.670 706.434, 140.644 685.325 C 153.418 655.280, 157.528 648.984, 162.617 651.672 C 171.091 656.149, 190.599 660.776, 214.500 663.978 C 218.350 664.494, 225.100 665.399, 229.500 665.990 C 240.675 667.490, 269.016 670.688, 278 671.463 C 282.125 671.818, 288.875 672.510, 293 673 C 297.125 673.490, 307.250 674.389, 315.500 674.998 C 332.955 676.286, 349.754 677.953, 352.234 678.642 C 353.785 679.074, 353.950 678.275, 353.796 671.050 C 353.687 665.933, 354.059 662.541, 354.812 661.788 C 355.465 661.135, 356 659.930, 356 659.112 C 356 656.119, 360.481 650.987, 363.939 650.019 C 368.276 648.806, 372.328 649.702, 371.560 651.705 C 371.252 652.507, 371 653.352, 371 653.582 C 371 653.812, 369.762 654.014, 368.250 654.032 C 357.479 654.156, 356.441 666.372, 363.621 708.500 C 365.147 717.451, 369.100 732.621, 371.959 740.500 C 378.988 759.867, 380.267 762.849, 382.803 765.773 C 387.590 771.292, 407.112 776.479, 408.591 772.624 C 410.003 768.943, 407.924 759.983, 404.844 756.475 C 401.722 752.920, 401.780 751, 405.008 751 C 408.361 751, 412.134 757.340, 413.341 765.001 C 414.514 772.453, 417.587 774.612, 421.062 770.425 C 422.606 768.565, 420.896 758.297, 418.410 754.502 C 417.123 752.538, 417.140 752.129, 418.561 750.949 C 421.949 748.138, 425.954 755.061, 425.985 763.781 C 426.002 768.716, 428.366 770.587, 430.645 767.471 C 436.472 759.502, 428.317 745.970, 416.500 744 C 413.312 743.469, 412.345 725.387, 414.923 714.500 C 415.444 712.300, 416.424 706.900, 417.100 702.500 C 419.341 687.929, 424.258 676, 428.023 676 C 430.524 676, 430.531 677.993, 428.046 682.418 C 422.341 692.575, 425.662 693.291, 452 687.583 C 461.272 685.574, 476.646 682.297, 480 681.615 C 481.375 681.335, 486.550 680.161, 491.500 679.005 C 496.450 677.849, 502.300 676.497, 504.500 675.999 C 508.756 675.036, 529.169 669.652, 553 663.207 C 560.975 661.050, 568.757 658.774, 570.294 658.150 C 571.831 657.526, 574.306 656.739, 575.794 656.400 C 592.615 652.569, 614 642.560, 614 638.518 C 614 638.266, 615.187 635.464, 616.638 632.292 C 620.206 624.491, 621.485 620.142, 627.455 595.500 C 628.921 589.450, 630.526 583.150, 631.021 581.500 C 633.546 573.088, 633.440 570, 630.628 570 C 629.183 570, 628 569.550, 628 569 C 628 568.450, 626.200 568, 624 568 C 621.800 568, 620 567.550, 620 567 C 620 566.450, 618.200 566, 616 566 C 613.800 566, 612 565.550, 612 565 C 612 564.450, 610.650 564, 609 564 C 607.350 564, 606 563.550, 606 563 C 606 562.450, 604.013 562, 601.583 562 C 598.986 562, 596.959 561.485, 596.662 560.750 C 596.385 560.063, 596.122 560.513, 596.079 561.750 C 596.036 562.987, 596.450 564, 597 564 C 597.550 564, 598 565.350, 598 567 C 598 568.650, 597.550 570, 597 570 C 596.450 570, 596 570.707, 596 571.571 C 596 573.592, 593.592 576, 591.571 576 C 590.707 576, 590 576.450, 590 577 C 590 577.550, 589.100 578, 588 578 C 586.900 578, 586 578.450, 586 579 C 586 579.550, 584.200 580, 582 580 C 579.800 580, 578 580.450, 578 581 C 578 581.593, 574.333 582, 569 582 C 563.667 582, 560 582.407, 560 583 C 560 583.571, 557 584, 553 584 C 549 584, 546 583.571, 546 583 C 546 582.450, 543.750 582, 541 582 C 538.250 582, 536 582.450, 536 583 C 536 583.571, 533 584, 529 584 C 525 584, 522 583.571, 522 583 C 522 582.450, 519.750 582, 517 582 C 514.250 582, 512 581.550, 512 581 C 512 580.450, 510.650 580, 509 580 C 507.350 580, 506 579.550, 506 579 C 506 578.450, 505.317 578, 504.481 578 C 502.504 578, 490 565.496, 490 563.519 C 490 562.683, 489.550 562, 489 562 C 488.450 562, 488 560.902, 488 559.559 C 488 558.216, 487.550 556.840, 487 556.500 C 485.696 555.694, 485.696 548, 487 548 C 487.550 548, 488 546.405, 488 544.455 C 488 542.036, 488.770 540.139, 490.422 538.487 C 491.755 537.154, 493.135 535.150, 493.490 534.032 C 493.845 532.914, 494.824 532, 495.666 532 C 496.508 532, 498.459 530.650, 500 529 C 501.541 527.350, 503.522 526, 504.401 526 C 505.281 526, 506 525.648, 506 525.218 C 506 524.788, 507.212 524.336, 508.694 524.213 C 510.176 524.091, 511.652 523.563, 511.975 523.041 C 512.297 522.519, 514.235 521.979, 516.281 521.842 C 518.326 521.704, 520 521.233, 520 520.796 C 520 520.358, 521.130 520, 522.512 520 C 525.043 520, 546 500.358, 546 497.985 C 546 497.414, 548.025 494.922, 550.500 492.447 C 552.975 489.972, 555 487.521, 555 487 C 555 486.479, 557.025 484.028, 559.500 481.553 C 561.975 479.078, 564 476.366, 564 475.526 C 564 474.687, 564.801 474, 565.779 474 C 566.758 474, 568.207 473.100, 569 472 C 569.793 470.900, 571.205 470, 572.137 470 C 573.070 470, 574.017 469.450, 574.241 468.778 C 575.022 466.435, 580 472.689, 580 476.014 C 580 477.829, 580.415 478.861, 581 478.500 C 581.639 478.105, 582 481.156, 582 486.941 C 582 492.314, 582.407 496, 583 496 C 583.611 496, 584 500.667, 584 508 L 584 520 604 520 C 617.133 520, 624 520.356, 624 521.036 C 624 521.700, 627.505 521.970, 633.748 521.786 L 643.496 521.500 644.223 515.500 C 644.623 512.200, 645.182 508.538, 645.466 507.363 C 645.895 505.586, 645.098 504.793, 640.741 502.660 C 597.713 481.598, 592.681 418.827, 631.951 393 C 633.205 392.175, 635.263 390.712, 636.523 389.750 C 637.784 388.788, 639.221 388, 639.717 388 C 642.877 388, 644.189 385.359, 643.098 381.192 C 642.494 378.886, 641.522 375.087, 640.937 372.750 C 637.980 360.931, 638.055 360.960, 610.800 360.668 C 594.169 360.490, 591.393 359.771, 593.631 356.222 C 594.701 354.527, 595.661 354.241, 607.386 352.123 C 617.793 350.244, 616.616 349.148, 603.065 348.099 C 592.328 347.267, 589.771 346.177, 591.628 343.222 C 592.723 341.479, 593.740 340.919, 606.750 334.888 C 617.702 329.810, 612.564 328.115, 596.523 331.513 C 588.267 333.261, 586 332.801, 586 329.378 C 586 327.071, 593.335 314.917, 595.181 314.167 C 598.136 312.964, 595.110 311.572, 592 312.704 M 401 334.998 C 399.075 335.434, 394.188 336.294, 390.140 336.911 C 367.691 340.329, 346.810 353.193, 337.009 369.641 C 335.089 372.864, 333.177 375.650, 332.759 375.833 C 332.342 376.017, 332 376.826, 332 377.632 C 332 378.437, 331.144 380.868, 330.098 383.033 C 327.971 387.435, 324.731 399.895, 322.954 410.500 C 321.143 421.313, 322.750 441.788, 325.936 448.500 C 326.459 449.600, 328.076 453.200, 329.530 456.500 C 334.373 467.492, 347.247 482.161, 357 487.801 C 359.475 489.233, 361.725 490.676, 362 491.009 C 363.136 492.383, 378.088 498.133, 386 500.238 C 475.633 524.087, 548.574 456.961, 512.852 383.500 C 509.454 376.512, 506.410 371.287, 504.706 369.515 C 504.043 368.825, 501.475 365.867, 499 362.942 C 491.597 354.191, 470.420 340, 464.763 340 C 464.013 340, 462.972 339.622, 462.450 339.161 C 461.927 338.700, 458.800 337.751, 455.500 337.053 C 452.200 336.355, 448.195 335.383, 446.601 334.892 C 443.072 333.806, 405.888 333.893, 401 334.998 M 556 667.563 C 551.875 668.903, 547.514 669.999, 546.309 670 C 545.104 670, 543.840 670.450, 543.500 671 C 543.160 671.550, 541.805 672, 540.488 672 C 539.171 672, 537.060 672.403, 535.797 672.896 C 534.534 673.389, 531.587 674.361, 529.250 675.056 L 525 676.320 524.868 687.410 C 524.438 723.558, 524.302 723.091, 535.748 724.833 C 548.857 726.829, 548 727.341, 548 717.500 C 548 703.784, 552.653 704.676, 553.215 718.500 L 553.500 725.500 558.216 725.803 C 566.545 726.339, 569.132 721.135, 564.764 712.633 C 564.070 711.284, 564.233 710.338, 565.352 709.219 C 567.449 707.123, 570 709.202, 570 713.008 C 570 716.355, 572.364 722.302, 573.317 721.350 C 575.681 718.986, 571.915 706.564, 567.688 702.782 C 566.243 701.490, 565.942 700.374, 566.473 698.282 C 566.861 696.752, 567.294 688.638, 567.435 680.250 C 567.735 662.510, 568.600 663.470, 556 667.563 M 237 673.435 C 237 682.008, 246.223 683.547, 271.419 679.179 C 278.514 677.950, 276.654 676.328, 267.287 675.574 C 262.454 675.186, 254 674.231, 248.500 673.452 C 236.199 671.711, 237 671.712, 237 673.435" stroke="none" fill="#07888e" fill-rule="evenodd"/><path d="M 0 500.001 L 0 1000.003 375.250 999.751 L 750.500 999.500 750.751 499.750 L 751.002 0 375.501 0 L 0 0 0 500.001 M 0.496 500.500 C 0.496 775.500, 0.610 887.851, 0.750 750.168 C 0.890 612.486, 0.890 387.486, 0.750 250.168 C 0.610 112.851, 0.496 225.500, 0.496 500.500 M 95.500 232.681 C 72.982 234.620, 43.243 241.867, 26.485 249.498 C 24.827 250.253, 22.352 251.299, 20.985 251.823 C 4.597 258.101, -0.634 272.958, 3.336 301.952 C 5.258 315.992, 16.936 352.628, 24.550 368.500 C 26.396 372.350, 29.929 379.775, 32.401 385 C 34.872 390.225, 37.530 395.625, 38.307 397 C 39.085 398.375, 41.784 403.775, 44.306 409 C 46.828 414.225, 51.764 423.428, 55.275 429.451 C 60.889 439.083, 61.580 440.830, 61.012 443.951 C 60.305 447.835, 60.469 509.741, 61.206 517 C 61.457 519.475, 62.170 524.650, 62.791 528.500 C 64.004 536.024, 64.826 545.866, 65.506 561.010 C 65.758 566.646, 66.972 574.523, 68.484 580.343 C 69.888 585.745, 72.154 598.116, 73.520 607.833 C 74.885 617.550, 76.664 628.650, 77.472 632.500 C 78.995 639.754, 79.466 642.689, 81 654.500 C 82.633 667.072, 84.466 674.951, 90.536 695.500 C 92.430 701.911, 92.573 703.891, 91.458 708.293 C 89.585 715.688, 97.179 734.704, 104.846 741.818 C 122.014 757.747, 150.783 765.318, 148.531 753.314 C 147.790 749.365, 149.650 748.896, 154.500 751.810 C 167.832 759.820, 176 757.104, 176 744.661 C 176 739.499, 176.217 738.837, 177.750 739.332 C 178.713 739.642, 181.960 740.748, 184.966 741.790 C 195.039 745.278, 203.988 740.746, 200.469 733.939 C 194.742 722.865, 155.293 699, 142.713 699 C 140.017 699, 140.767 696.583, 148.280 681.065 C 151.701 673.999, 155.625 665.703, 157 662.630 C 159.930 656.080, 159.021 656.345, 167.562 659.560 C 173.526 661.804, 181.461 663.747, 191.500 665.421 C 193.150 665.696, 196.300 666.354, 198.500 666.882 C 200.700 667.410, 205.650 668.107, 209.500 668.431 C 227.196 669.919, 231 670.829, 231 673.573 C 231 674.373, 231.397 675.809, 231.883 676.764 C 233.487 679.916, 234.836 683.464, 235.396 686 C 235.700 687.375, 237.139 689.850, 238.593 691.500 C 240.048 693.150, 242.952 696.798, 245.046 699.608 C 252.643 709.800, 260.273 714.033, 277.500 717.614 C 284.428 719.053, 302.502 718.098, 304.030 716.211 C 305.397 714.523, 306.810 714.280, 314.645 714.382 C 324.590 714.512, 326.674 713.647, 327.191 709.177 C 327.471 706.749, 327.890 706.500, 331.698 706.500 C 342.147 706.500, 340.054 695.536, 328.574 690.140 C 323.028 687.533, 310.439 683.350, 305.500 682.473 C 303.300 682.082, 299.043 681.141, 296.040 680.381 C 293.037 679.622, 288.424 679, 285.790 679 C 283.079 679, 281 678.539, 281 677.939 C 281 677.270, 282.572 677.082, 285.250 677.431 C 287.587 677.735, 294.900 678.480, 301.500 679.087 C 308.100 679.693, 315.075 680.344, 317 680.533 C 322.830 681.106, 334.986 681.982, 344.401 682.508 C 354.391 683.066, 356.079 683.925, 355.963 688.391 C 355.878 691.696, 356.635 698.859, 357.507 703 C 358.236 706.462, 358.651 708.779, 359.473 714 C 360.152 718.310, 364.216 732.441, 369.682 749.500 C 378.467 776.922, 395.876 784.561, 426 774.210 C 442.405 768.574, 441.146 749.958, 423.750 740.949 C 420.587 739.311, 418.009 737.415, 418.020 736.736 C 418.048 734.974, 420.759 710.461, 421.585 704.500 C 422.402 698.595, 423.701 695.697, 425.133 696.582 C 426.114 697.188, 431.274 696.311, 453 691.842 C 458.225 690.767, 468.800 688.766, 476.500 687.394 C 491.986 684.636, 498.102 683.038, 506.988 679.427 C 510.273 678.092, 514.533 677, 516.455 677 L 519.950 677 519.362 695.356 C 518.704 715.906, 519.872 723.181, 524.403 726.745 C 529.172 730.496, 550.948 731.827, 562.438 729.071 C 564.605 728.551, 566.630 728.151, 566.938 728.181 C 578.671 729.343, 582.401 718.038, 574.918 703.998 C 571.535 697.651, 571.013 692.024, 572.335 676.174 C 573.467 662.592, 573.254 662.852, 586.860 658.497 C 608.204 651.666, 617.290 645.170, 621.505 633.726 C 626.797 619.362, 627.819 615.733, 628.963 607.255 C 629.426 603.820, 630.702 598.645, 631.798 595.755 C 634.153 589.546, 635.987 582.761, 636.526 578.265 C 637.102 573.456, 638.840 570.722, 640.827 571.500 C 646.962 573.904, 675.142 572.450, 681.573 569.398 C 707.552 557.071, 696.630 532.794, 662 525.892 C 647.620 523.027, 647.836 523.212, 649.338 515 C 650.645 507.852, 650.546 507.906, 659.500 509.496 C 724.024 520.960, 770.906 460.337, 736.895 409.416 C 729.836 398.849, 711.186 384, 704.971 384 C 704.107 384, 702.973 383.611, 702.450 383.136 C 696.663 377.873, 661.801 377.486, 651.877 382.575 C 648.712 384.198, 648 383.640, 648 379.533 C 648 377.810, 647.460 375.860, 646.800 375.200 C 646.140 374.540, 645.904 374, 646.275 374 C 646.647 374, 646.472 372.762, 645.886 371.250 C 645.301 369.738, 644.666 367.729, 644.476 366.787 C 642.734 358.181, 639.223 356.152, 625.387 355.759 C 617.578 355.537, 616.539 355.314, 618.129 354.199 C 625.565 348.984, 620.854 343.897, 608.486 343.786 C 604.606 343.751, 603 343.347, 603 342.404 C 603 340.999, 606.388 338.721, 607.227 339.561 C 611.289 343.622, 619.510 332.432, 615.855 327.817 C 612.323 323.357, 605.035 323.227, 594.879 327.442 C 592.125 328.585, 591.949 325.366, 594.601 322.332 C 605.496 309.866, 604.282 302.286, 592.403 308.603 C 589.710 310.034, 584.743 312.312, 581.365 313.665 C 577.986 315.017, 571.703 318.346, 567.402 321.062 C 563.101 323.778, 558.804 326, 557.853 326 C 556.902 326, 552.877 327.762, 548.907 329.916 C 543.162 333.034, 541.211 333.651, 539.345 332.941 C 538.055 332.451, 537 332.260, 537 332.517 C 537 332.774, 535.313 332.348, 533.250 331.570 C 524.145 328.139, 514.803 325.926, 505.841 325.080 C 500.529 324.579, 495.354 323.739, 494.341 323.214 C 491.778 321.887, 478.791 319.246, 471 318.468 C 467.425 318.112, 462.475 317.369, 460 316.819 C 457.525 316.269, 449.425 315.642, 442 315.426 C 434.575 315.210, 422.650 314.749, 415.500 314.401 C 379.146 312.631, 330.774 314.494, 308.500 318.522 C 304.100 319.318, 293.975 321.097, 286 322.475 C 278.025 323.854, 269.475 325.466, 267 326.057 C 256.386 328.594, 241.761 331.933, 239.279 332.386 C 238.607 332.509, 237.745 332.922, 237.362 333.304 C 236.980 333.687, 235.823 334, 234.791 334 C 233.759 334, 226.747 336.072, 219.208 338.603 C 211.668 341.135, 205.050 343.309, 204.500 343.435 C 203.950 343.560, 201.475 344.228, 199 344.919 C 194.767 346.101, 191.595 347.271, 175.428 353.616 C 171.806 355.037, 168.217 356.292, 167.451 356.404 C 166.685 356.517, 165.745 356.922, 165.362 357.304 C 162.412 360.255, 160.838 354.663, 162.012 345.402 C 163.089 336.908, 164.413 333.614, 180.461 299.500 C 184.288 291.363, 184.119 291.818, 188.652 277.500 C 194.926 257.682, 192.762 239.359, 183.864 236.963 C 168.789 232.904, 120.232 230.551, 95.500 232.681 M 407.144 340.031 C 361.712 343.584, 338.366 362.756, 330.025 403.360 C 321.179 446.428, 339.666 478.434, 382 493.341 C 400.696 499.924, 453.083 498.446, 466.927 490.944 C 467.792 490.475, 470.750 489.147, 473.500 487.993 C 542.799 458.918, 525.651 358.060, 448.500 340.954 C 442.211 339.560, 419.617 339.055, 407.144 340.031 M 371.992 369.424 C 364.312 371.546, 350 383.247, 350 387.404 C 350 387.920, 349.383 389.053, 348.629 389.921 C 345.302 393.752, 342.708 404.341, 342.603 414.521 C 342.150 458.504, 405.166 473.175, 427.819 434.360 C 448.867 398.295, 414.057 357.805, 371.992 369.424 M 667.894 384.439 C 667.653 384.681, 664.151 385.567, 660.114 386.409 C 613.622 396.103, 594.550 450.349, 625.776 484.076 C 631.644 490.413, 644.981 500, 647.930 500 C 648.624 500, 650.386 500.647, 651.846 501.437 C 659.684 505.680, 679.864 507.223, 691.169 504.443 C 753.928 489.012, 761.317 417.049, 703 389.216 C 695.970 385.860, 670.006 382.328, 667.894 384.439 M 373.430 386.914 C 365.961 390.121, 367.069 401.758, 375.010 403.502 C 381.901 405.016, 387 401.012, 387 394.088 C 387 388.373, 379.395 384.352, 373.430 386.914 M 692.953 413.887 C 665.051 422.993, 665.145 464.704, 693.090 474.435 C 722.081 484.531, 745.003 444.558, 723.110 422.084 C 715.638 414.414, 702.381 410.811, 692.953 413.887 M 699.655 432.829 C 697.338 435.389, 697.499 440.662, 699.934 441.965 C 706.251 445.346, 711.377 440.554, 708.282 434.162 C 706.491 430.465, 702.371 429.828, 699.655 432.829" stroke="none" fill="#fbf5ef" fill-rule="evenodd"/></svg>