<?xml version="1.0" standalone="no"?>
<!DOCTYPE svg PUBLIC "-//W3C//DTD SVG 20010904//EN"
 "http://www.w3.org/TR/2001/REC-SVG-20010904/DTD/svg10.dtd">
<svg version="1.0" xmlns="http://www.w3.org/2000/svg"
 width="300.000000pt" height="400.000000pt" viewBox="0 0 300.000000 400.000000"
 preserveAspectRatio="xMidYMid meet">
<metadata>
Created by potrace 1.10, written by Peter Selinger 2001-2011
</metadata>
<g transform="translate(0.000000,400.000000) scale(0.100000,-0.100000)"
fill="#000000" stroke="none">
<path d="M260 3049 c-110 -24 -213 -69 -237 -105 -52 -79 42 -392 196 -654 25
-43 26 -51 22 -157 -2 -62 2 -168 9 -235 15 -154 86 -592 107 -661 9 -29 15
-65 14 -81 -5 -76 56 -150 148 -181 56 -18 84 -15 75 10 -8 19 5 19 45 -1 43
-22 61 -13 61 31 0 34 12 46 25 25 9 -15 61 -12 75 5 11 13 7 21 -22 48 -41
39 -167 107 -197 107 -12 0 -21 2 -21 4 0 3 71 159 74 163 1 2 40 -6 87 -17
46 -10 111 -23 143 -27 58 -8 60 -9 73 -49 18 -54 83 -120 130 -133 47 -13
153 -14 153 -2 0 5 18 7 40 4 32 -5 41 -2 47 13 5 11 15 19 23 19 8 0 16 10
18 23 3 18 -5 26 -44 43 -26 12 -79 27 -118 34 -94 17 -34 18 123 2 l114 -12
4 -37 c8 -78 45 -224 69 -271 31 -59 108 -81 196 -57 46 13 62 38 50 82 -5 22
-18 37 -40 47 -33 16 -33 16 -27 76 10 105 13 112 43 113 15 1 36 3 47 6 11 2
49 10 85 16 36 7 90 19 120 27 30 8 67 17 83 20 l27 5 0 -89 c0 -115 8 -123
106 -122 97 1 118 9 122 43 2 15 -2 42 -9 59 -15 35 -13 145 2 163 5 6 30 17
55 24 70 20 119 61 138 116 9 26 16 57 16 68 0 12 7 40 15 64 9 24 17 52 18
62 5 30 9 31 95 33 99 2 135 23 140 80 3 30 -2 39 -30 60 -18 14 -56 31 -83
38 -28 6 -56 13 -63 15 -8 2 -10 13 -6 31 4 16 8 29 9 30 0 2 27 -2 59 -7 101
-16 195 20 269 104 52 58 73 178 44 246 -54 125 -205 200 -333 167 l-52 -14
-6 39 c-9 56 -39 82 -88 75 -37 -5 -39 -4 -24 12 20 22 12 31 -31 31 -18 0
-33 5 -33 10 0 6 6 10 13 10 7 0 23 7 35 16 19 13 21 18 10 31 -9 11 -23 14
-55 9 -48 -6 -51 -2 -23 34 18 23 26 50 15 50 -4 0 -31 -13 -185 -90 -52 -26
-57 -27 -95 -13 -22 8 -65 18 -95 23 -30 4 -95 15 -145 23 -82 13 -232 21
-390 21 -225 -1 -486 -50 -725 -135 -136 -49 -132 -49 -124 2 4 24 27 86 51
138 81 176 93 279 35 303 -15 6 -106 12 -202 14 -148 3 -190 1 -270 -17z m434
-12 c37 -7 43 -14 52 -61 5 -28 4 -37 -4 -32 -7 4 -72 -35 -146 -88 -147 -103
-127 -96 -226 -72 -83 21 -206 62 -258 86 -65 31 -85 32 -63 6 20 -24 242
-102 345 -122 20 -3 36 -10 36 -15 0 -5 -4 -9 -8 -9 -4 0 -50 -28 -102 -61
l-95 -62 -71 37 c-38 20 -75 36 -80 36 -24 0 -53 181 -38 238 10 35 131 90
249 112 96 17 327 21 409 7z m5 -227 l-43 -92 -40 6 c-23 4 -61 12 -85 20
l-44 12 34 21 c39 24 141 95 184 129 45 35 43 10 -6 -96z m1671 -79 c-5 -11
-15 -23 -20 -26 -6 -3 -10 -13 -10 -22 0 -13 9 -14 55 -8 30 3 55 4 55 1 0 -3
-21 -14 -46 -25 -53 -24 -50 -41 6 -41 21 0 42 -4 45 -10 4 -6 -6 -10 -24 -10
-16 0 -36 -3 -45 -6 -35 -13 -12 -22 70 -26 93 -5 99 -9 110 -67 5 -26 3 -36
-10 -43 -107 -60 -160 -191 -124 -310 13 -45 77 -122 119 -143 25 -13 28 -20
26 -54 -2 -38 -3 -39 -32 -33 -16 4 -71 7 -122 7 l-91 0 1 52 c1 28 -1 49 -6
46 -4 -2 -6 16 -4 41 3 30 1 43 -6 39 -6 -4 -8 0 -4 10 7 18 -17 13 -44 -10
-9 -7 -20 -10 -25 -6 -5 5 -6 4 -2 -1 10 -11 -11 -38 -23 -30 -5 3 -6 -2 -3
-11 4 -9 3 -15 -2 -13 -5 2 -11 -1 -13 -7 -9 -19 -26 -33 -35 -27 -5 3 -6 0
-2 -6 4 -7 -3 -22 -15 -34 -12 -13 -19 -17 -15 -10 4 6 5 12 1 12 -3 0 -10
-12 -15 -26 -7 -17 -15 -24 -25 -20 -9 3 -30 -3 -47 -14 -17 -10 -36 -16 -41
-13 -6 4 -7 1 -2 -7 6 -10 4 -12 -8 -7 -10 4 -16 2 -14 -5 1 -7 -3 -12 -10
-13 -6 0 -15 -4 -20 -9 -5 -5 -3 -6 5 -2 6 4 12 3 12 -3 0 -5 -5 -11 -12 -13
-13 -5 -18 -58 -5 -58 5 0 6 -7 3 -16 -3 -8 -2 -13 3 -10 5 3 14 -1 21 -9 7
-8 9 -15 4 -16 -5 0 1 -4 14 -10 13 -5 21 -13 18 -18 -3 -5 4 -7 16 -3 14 3
19 1 14 -6 -5 -8 -1 -10 10 -5 12 4 15 3 10 -5 -9 -15 -5 -15 28 -2 14 5 26 6
26 2 0 -7 41 -7 95 0 6 1 23 -2 38 -6 16 -4 27 -2 27 4 0 5 3 9 8 9 4 -1 9 0
12 1 9 3 45 11 57 12 7 1 9 6 6 11 -4 6 0 8 9 5 11 -5 14 -1 10 17 -4 24 15
45 27 28 3 -5 15 -10 26 -10 40 -2 65 -7 65 -14 0 -3 12 -4 28 -2 15 3 22 1
16 -4 -7 -4 -21 -48 -33 -98 -37 -151 -56 -191 -104 -213 -51 -23 -214 -72
-360 -107 -134 -32 -341 -74 -345 -70 -1 1 3 14 9 29 13 29 4 49 -12 26 -17
-27 -38 -114 -45 -187 l-6 -72 35 -15 c40 -16 56 -52 39 -83 -9 -16 -11 -14
-17 12 -11 48 -14 55 -25 55 -6 0 -8 -10 -4 -25 11 -44 9 -59 -6 -62 -11 -3
-16 6 -17 29 -1 17 -9 39 -18 47 -17 17 -33 8 -18 -11 6 -7 13 -25 15 -40 5
-25 2 -28 -23 -28 -15 0 -39 5 -53 11 -41 19 -85 143 -110 308 -15 104 -8 145
26 154 11 3 17 10 14 15 -21 34 -84 -45 -73 -90 6 -22 18 -22 -190 -3 -304 28
-489 55 -551 81 -19 8 -38 12 -41 9 -3 -3 -28 -52 -56 -108 -48 -97 -52 -102
-84 -105 -19 -2 -49 -1 -66 2 -30 6 -33 11 -53 79 -20 70 -47 207 -76 397 -35
219 -42 478 -19 647 5 41 8 44 87 89 137 79 144 83 249 128 327 142 612 200
962 199 213 -1 343 -16 507 -57 l91 -23 96 53 c53 30 100 54 104 54 4 0 3 -9
-3 -19z m-1865 -5 c6 -2 38 -9 73 -16 36 -7 62 -18 62 -25 0 -7 -32 -44 -71
-81 -70 -68 -92 -78 -134 -63 -11 4 -55 18 -97 31 -43 12 -78 25 -78 28 1 3
37 28 81 55 44 28 90 58 102 68 11 10 28 15 36 11 9 -3 21 -7 26 -8z m-409
-77 c3 -6 30 -21 58 -34 l51 -22 -44 -22 c-23 -12 -45 -20 -47 -18 -13 12 -43
107 -35 107 6 0 13 -5 17 -11z m528 -44 c-4 -8 -1 -21 5 -28 8 -11 -20 -29
-132 -85 -78 -39 -163 -85 -188 -101 -42 -26 -47 -35 -54 -78 l-8 -48 -9 32
c-4 18 -13 35 -18 38 -19 12 -11 26 9 16 14 -8 20 -7 25 4 3 10 -1 15 -12 15
-28 1 -58 33 -90 97 l-31 60 57 27 57 27 80 -26 c82 -28 100 -33 124 -34 7 -1
11 -7 7 -16 -14 -39 64 6 134 77 39 39 52 46 44 23z m2201 -169 c90 -41 145
-124 145 -216 0 -226 -314 -330 -469 -154 -142 162 -22 394 204 394 52 0 83
-6 120 -24z m-520 -368 c3 -18 7 -63 8 -100 l2 -68 90 -1 c123 -2 140 -4 218
-18 116 -23 168 -80 116 -127 -33 -30 -175 -25 -304 11 -106 29 -266 43 -349
31 -84 -13 -48 -21 92 -21 116 0 142 -3 166 -18 61 -41 -2 -66 -169 -66 -134
-1 -170 11 -200 68 -23 46 3 93 66 120 26 12 54 21 62 21 14 0 88 80 157 168
14 17 28 32 32 32 4 0 10 -15 13 -32z m-36 -802 c-2 -43 1 -79 8 -87 17 -22
26 -59 14 -59 -6 0 -11 9 -11 19 0 11 -5 23 -12 27 -8 5 -9 -3 -5 -29 6 -36 5
-37 -24 -37 -27 0 -29 3 -29 35 0 19 -4 35 -10 35 -5 0 -10 -16 -10 -35 0 -30
-3 -35 -22 -35 -65 1 -68 5 -68 104 l0 92 78 21 c42 12 81 22 85 22 5 1 7 -32
6 -73z m-1206 34 c61 0 42 -18 -24 -22 -61 -3 -89 4 -89 24 0 7 13 8 38 4 20
-3 54 -6 75 -6z m196 -64 c36 -12 67 -27 69 -34 3 -11 0 -12 -18 -2 -16 9 -25
9 -33 1 -8 -8 -8 -11 1 -11 7 0 12 -7 12 -15 0 -17 -36 -20 -74 -5 -16 6 -27
6 -31 0 -4 -6 -1 -10 4 -10 6 0 11 -4 11 -8 0 -12 -121 3 -150 18 -29 15 -90
70 -90 82 0 5 10 6 23 3 12 -3 45 -1 72 4 62 11 121 4 204 -23z m-613 -82 c60
-28 134 -80 134 -94 0 -5 -21 -9 -47 -7 -47 2 -48 1 -53 -30 l-5 -32 -44 19
c-47 22 -65 18 -58 -12 4 -14 1 -18 -8 -14 -8 3 -31 10 -53 16 -40 10 -122 86
-122 112 0 7 -3 22 -6 34 -5 20 -3 21 68 16 60 -3 76 -1 87 12 16 19 30 16
107 -20z"/>
<path d="M1604 2661 c-199 -25 -300 -133 -312 -333 -5 -84 -3 -91 27 -152 71
-144 219 -208 430 -187 111 12 181 41 250 106 70 66 95 127 89 226 -8 144 -98
271 -224 319 -63 23 -171 32 -260 21z m251 -42 c126 -47 215 -179 215 -318 0
-108 -70 -204 -189 -260 -52 -24 -66 -26 -196 -26 -130 0 -144 2 -195 26 -74
34 -120 76 -150 136 -21 41 -25 62 -25 138 0 82 3 97 33 157 54 111 131 156
282 168 100 7 165 1 225 -21z"/>
<path d="M1475 2516 c-82 -36 -127 -154 -91 -239 37 -89 169 -129 263 -79 34
18 72 70 83 113 21 77 -14 155 -85 189 -56 27 -131 34 -170 16z m146 -30 c98
-41 120 -164 44 -241 -39 -38 -83 -51 -150 -41 -121 19 -160 170 -68 262 30
30 40 34 87 34 30 0 69 -6 87 -14z"/>
<path d="M1471 2461 c-26 -26 -27 -63 -2 -85 27 -24 70 -17 94 17 l21 27 -21
28 c-25 34 -65 40 -92 13z m73 -23 c22 -35 -27 -74 -59 -48 -20 17 -19 47 3
59 23 14 42 10 56 -11z"/>
<path d="M2765 2341 c-90 -39 -99 -182 -15 -226 50 -26 97 -20 135 18 78 78
40 198 -66 212 -19 3 -43 1 -54 -4z m103 -41 c47 -44 41 -129 -11 -160 -18
-11 -42 -20 -54 -20 -29 0 -79 44 -87 76 -9 34 10 90 37 109 31 22 89 19 115
-5z"/>
<path d="M2782 2288 c-19 -19 -14 -62 9 -77 32 -19 69 3 69 40 0 41 -50 65
-78 37z m56 -34 c3 -22 -21 -39 -39 -28 -11 6 -12 38 -2 48 13 13 38 1 41 -20z"/>
<path d="M263 873 c20 -2 54 -2 75 0 20 2 3 4 -38 4 -41 0 -58 -2 -37 -4z"/>
<path d="M893 873 c64 -2 170 -2 235 0 64 1 11 3 -118 3 -129 0 -182 -2 -117
-3z"/>
<path d="M2217 873 c145 -2 381 -2 525 0 145 1 27 2 -262 2 -289 0 -407 -1
-263 -2z"/>
</g>
</svg>
